G75*
%MOIN*%
%OFA0B0*%
%FSLAX25Y25*%
%IPPOS*%
%LPD*%
%AMOC8*
5,1,8,0,0,1.08239X$1,22.5*
%
%ADD10C,0.00000*%
%ADD11C,0.00600*%
%ADD12C,0.00512*%
D10*
X0076792Y0098156D02*
X0251792Y0098156D01*
X0251792Y0253156D01*
X0076792Y0253156D01*
X0076792Y0098156D01*
X0233042Y0110656D02*
X0233044Y0110814D01*
X0233050Y0110971D01*
X0233060Y0111129D01*
X0233074Y0111286D01*
X0233092Y0111442D01*
X0233113Y0111599D01*
X0233139Y0111754D01*
X0233169Y0111909D01*
X0233202Y0112063D01*
X0233240Y0112216D01*
X0233281Y0112369D01*
X0233326Y0112520D01*
X0233375Y0112670D01*
X0233428Y0112818D01*
X0233484Y0112966D01*
X0233545Y0113111D01*
X0233608Y0113256D01*
X0233676Y0113398D01*
X0233747Y0113539D01*
X0233821Y0113678D01*
X0233899Y0113815D01*
X0233981Y0113950D01*
X0234065Y0114083D01*
X0234154Y0114214D01*
X0234245Y0114342D01*
X0234340Y0114469D01*
X0234437Y0114592D01*
X0234538Y0114714D01*
X0234642Y0114832D01*
X0234749Y0114948D01*
X0234859Y0115061D01*
X0234971Y0115172D01*
X0235087Y0115279D01*
X0235205Y0115384D01*
X0235325Y0115486D01*
X0235448Y0115584D01*
X0235574Y0115680D01*
X0235702Y0115772D01*
X0235832Y0115861D01*
X0235964Y0115947D01*
X0236099Y0116029D01*
X0236236Y0116108D01*
X0236374Y0116183D01*
X0236514Y0116255D01*
X0236657Y0116323D01*
X0236800Y0116388D01*
X0236946Y0116449D01*
X0237093Y0116506D01*
X0237241Y0116560D01*
X0237391Y0116610D01*
X0237541Y0116656D01*
X0237693Y0116698D01*
X0237846Y0116737D01*
X0238000Y0116771D01*
X0238155Y0116802D01*
X0238310Y0116828D01*
X0238466Y0116851D01*
X0238623Y0116870D01*
X0238780Y0116885D01*
X0238937Y0116896D01*
X0239095Y0116903D01*
X0239253Y0116906D01*
X0239410Y0116905D01*
X0239568Y0116900D01*
X0239725Y0116891D01*
X0239883Y0116878D01*
X0240039Y0116861D01*
X0240196Y0116840D01*
X0240351Y0116816D01*
X0240506Y0116787D01*
X0240661Y0116754D01*
X0240814Y0116718D01*
X0240967Y0116677D01*
X0241118Y0116633D01*
X0241268Y0116585D01*
X0241417Y0116534D01*
X0241565Y0116478D01*
X0241711Y0116419D01*
X0241856Y0116356D01*
X0241999Y0116289D01*
X0242140Y0116219D01*
X0242279Y0116146D01*
X0242417Y0116069D01*
X0242553Y0115988D01*
X0242686Y0115904D01*
X0242817Y0115817D01*
X0242946Y0115726D01*
X0243073Y0115632D01*
X0243198Y0115535D01*
X0243319Y0115435D01*
X0243439Y0115332D01*
X0243555Y0115226D01*
X0243669Y0115117D01*
X0243781Y0115005D01*
X0243889Y0114891D01*
X0243994Y0114773D01*
X0244097Y0114653D01*
X0244196Y0114531D01*
X0244292Y0114406D01*
X0244385Y0114278D01*
X0244475Y0114149D01*
X0244561Y0114017D01*
X0244645Y0113883D01*
X0244724Y0113747D01*
X0244801Y0113609D01*
X0244873Y0113469D01*
X0244942Y0113327D01*
X0245008Y0113184D01*
X0245070Y0113039D01*
X0245128Y0112892D01*
X0245183Y0112744D01*
X0245234Y0112595D01*
X0245281Y0112444D01*
X0245324Y0112293D01*
X0245363Y0112140D01*
X0245399Y0111986D01*
X0245430Y0111832D01*
X0245458Y0111677D01*
X0245482Y0111521D01*
X0245502Y0111364D01*
X0245518Y0111207D01*
X0245530Y0111050D01*
X0245538Y0110893D01*
X0245542Y0110735D01*
X0245542Y0110577D01*
X0245538Y0110419D01*
X0245530Y0110262D01*
X0245518Y0110105D01*
X0245502Y0109948D01*
X0245482Y0109791D01*
X0245458Y0109635D01*
X0245430Y0109480D01*
X0245399Y0109326D01*
X0245363Y0109172D01*
X0245324Y0109019D01*
X0245281Y0108868D01*
X0245234Y0108717D01*
X0245183Y0108568D01*
X0245128Y0108420D01*
X0245070Y0108273D01*
X0245008Y0108128D01*
X0244942Y0107985D01*
X0244873Y0107843D01*
X0244801Y0107703D01*
X0244724Y0107565D01*
X0244645Y0107429D01*
X0244561Y0107295D01*
X0244475Y0107163D01*
X0244385Y0107034D01*
X0244292Y0106906D01*
X0244196Y0106781D01*
X0244097Y0106659D01*
X0243994Y0106539D01*
X0243889Y0106421D01*
X0243781Y0106307D01*
X0243669Y0106195D01*
X0243555Y0106086D01*
X0243439Y0105980D01*
X0243319Y0105877D01*
X0243198Y0105777D01*
X0243073Y0105680D01*
X0242946Y0105586D01*
X0242817Y0105495D01*
X0242686Y0105408D01*
X0242553Y0105324D01*
X0242417Y0105243D01*
X0242279Y0105166D01*
X0242140Y0105093D01*
X0241999Y0105023D01*
X0241856Y0104956D01*
X0241711Y0104893D01*
X0241565Y0104834D01*
X0241417Y0104778D01*
X0241268Y0104727D01*
X0241118Y0104679D01*
X0240967Y0104635D01*
X0240814Y0104594D01*
X0240661Y0104558D01*
X0240506Y0104525D01*
X0240351Y0104496D01*
X0240196Y0104472D01*
X0240039Y0104451D01*
X0239883Y0104434D01*
X0239725Y0104421D01*
X0239568Y0104412D01*
X0239410Y0104407D01*
X0239253Y0104406D01*
X0239095Y0104409D01*
X0238937Y0104416D01*
X0238780Y0104427D01*
X0238623Y0104442D01*
X0238466Y0104461D01*
X0238310Y0104484D01*
X0238155Y0104510D01*
X0238000Y0104541D01*
X0237846Y0104575D01*
X0237693Y0104614D01*
X0237541Y0104656D01*
X0237391Y0104702D01*
X0237241Y0104752D01*
X0237093Y0104806D01*
X0236946Y0104863D01*
X0236800Y0104924D01*
X0236657Y0104989D01*
X0236514Y0105057D01*
X0236374Y0105129D01*
X0236236Y0105204D01*
X0236099Y0105283D01*
X0235964Y0105365D01*
X0235832Y0105451D01*
X0235702Y0105540D01*
X0235574Y0105632D01*
X0235448Y0105728D01*
X0235325Y0105826D01*
X0235205Y0105928D01*
X0235087Y0106033D01*
X0234971Y0106140D01*
X0234859Y0106251D01*
X0234749Y0106364D01*
X0234642Y0106480D01*
X0234538Y0106598D01*
X0234437Y0106720D01*
X0234340Y0106843D01*
X0234245Y0106970D01*
X0234154Y0107098D01*
X0234065Y0107229D01*
X0233981Y0107362D01*
X0233899Y0107497D01*
X0233821Y0107634D01*
X0233747Y0107773D01*
X0233676Y0107914D01*
X0233608Y0108056D01*
X0233545Y0108201D01*
X0233484Y0108346D01*
X0233428Y0108494D01*
X0233375Y0108642D01*
X0233326Y0108792D01*
X0233281Y0108943D01*
X0233240Y0109096D01*
X0233202Y0109249D01*
X0233169Y0109403D01*
X0233139Y0109558D01*
X0233113Y0109713D01*
X0233092Y0109870D01*
X0233074Y0110026D01*
X0233060Y0110183D01*
X0233050Y0110341D01*
X0233044Y0110498D01*
X0233042Y0110656D01*
X0233042Y0198156D02*
X0233044Y0198314D01*
X0233050Y0198471D01*
X0233060Y0198629D01*
X0233074Y0198786D01*
X0233092Y0198942D01*
X0233113Y0199099D01*
X0233139Y0199254D01*
X0233169Y0199409D01*
X0233202Y0199563D01*
X0233240Y0199716D01*
X0233281Y0199869D01*
X0233326Y0200020D01*
X0233375Y0200170D01*
X0233428Y0200318D01*
X0233484Y0200466D01*
X0233545Y0200611D01*
X0233608Y0200756D01*
X0233676Y0200898D01*
X0233747Y0201039D01*
X0233821Y0201178D01*
X0233899Y0201315D01*
X0233981Y0201450D01*
X0234065Y0201583D01*
X0234154Y0201714D01*
X0234245Y0201842D01*
X0234340Y0201969D01*
X0234437Y0202092D01*
X0234538Y0202214D01*
X0234642Y0202332D01*
X0234749Y0202448D01*
X0234859Y0202561D01*
X0234971Y0202672D01*
X0235087Y0202779D01*
X0235205Y0202884D01*
X0235325Y0202986D01*
X0235448Y0203084D01*
X0235574Y0203180D01*
X0235702Y0203272D01*
X0235832Y0203361D01*
X0235964Y0203447D01*
X0236099Y0203529D01*
X0236236Y0203608D01*
X0236374Y0203683D01*
X0236514Y0203755D01*
X0236657Y0203823D01*
X0236800Y0203888D01*
X0236946Y0203949D01*
X0237093Y0204006D01*
X0237241Y0204060D01*
X0237391Y0204110D01*
X0237541Y0204156D01*
X0237693Y0204198D01*
X0237846Y0204237D01*
X0238000Y0204271D01*
X0238155Y0204302D01*
X0238310Y0204328D01*
X0238466Y0204351D01*
X0238623Y0204370D01*
X0238780Y0204385D01*
X0238937Y0204396D01*
X0239095Y0204403D01*
X0239253Y0204406D01*
X0239410Y0204405D01*
X0239568Y0204400D01*
X0239725Y0204391D01*
X0239883Y0204378D01*
X0240039Y0204361D01*
X0240196Y0204340D01*
X0240351Y0204316D01*
X0240506Y0204287D01*
X0240661Y0204254D01*
X0240814Y0204218D01*
X0240967Y0204177D01*
X0241118Y0204133D01*
X0241268Y0204085D01*
X0241417Y0204034D01*
X0241565Y0203978D01*
X0241711Y0203919D01*
X0241856Y0203856D01*
X0241999Y0203789D01*
X0242140Y0203719D01*
X0242279Y0203646D01*
X0242417Y0203569D01*
X0242553Y0203488D01*
X0242686Y0203404D01*
X0242817Y0203317D01*
X0242946Y0203226D01*
X0243073Y0203132D01*
X0243198Y0203035D01*
X0243319Y0202935D01*
X0243439Y0202832D01*
X0243555Y0202726D01*
X0243669Y0202617D01*
X0243781Y0202505D01*
X0243889Y0202391D01*
X0243994Y0202273D01*
X0244097Y0202153D01*
X0244196Y0202031D01*
X0244292Y0201906D01*
X0244385Y0201778D01*
X0244475Y0201649D01*
X0244561Y0201517D01*
X0244645Y0201383D01*
X0244724Y0201247D01*
X0244801Y0201109D01*
X0244873Y0200969D01*
X0244942Y0200827D01*
X0245008Y0200684D01*
X0245070Y0200539D01*
X0245128Y0200392D01*
X0245183Y0200244D01*
X0245234Y0200095D01*
X0245281Y0199944D01*
X0245324Y0199793D01*
X0245363Y0199640D01*
X0245399Y0199486D01*
X0245430Y0199332D01*
X0245458Y0199177D01*
X0245482Y0199021D01*
X0245502Y0198864D01*
X0245518Y0198707D01*
X0245530Y0198550D01*
X0245538Y0198393D01*
X0245542Y0198235D01*
X0245542Y0198077D01*
X0245538Y0197919D01*
X0245530Y0197762D01*
X0245518Y0197605D01*
X0245502Y0197448D01*
X0245482Y0197291D01*
X0245458Y0197135D01*
X0245430Y0196980D01*
X0245399Y0196826D01*
X0245363Y0196672D01*
X0245324Y0196519D01*
X0245281Y0196368D01*
X0245234Y0196217D01*
X0245183Y0196068D01*
X0245128Y0195920D01*
X0245070Y0195773D01*
X0245008Y0195628D01*
X0244942Y0195485D01*
X0244873Y0195343D01*
X0244801Y0195203D01*
X0244724Y0195065D01*
X0244645Y0194929D01*
X0244561Y0194795D01*
X0244475Y0194663D01*
X0244385Y0194534D01*
X0244292Y0194406D01*
X0244196Y0194281D01*
X0244097Y0194159D01*
X0243994Y0194039D01*
X0243889Y0193921D01*
X0243781Y0193807D01*
X0243669Y0193695D01*
X0243555Y0193586D01*
X0243439Y0193480D01*
X0243319Y0193377D01*
X0243198Y0193277D01*
X0243073Y0193180D01*
X0242946Y0193086D01*
X0242817Y0192995D01*
X0242686Y0192908D01*
X0242553Y0192824D01*
X0242417Y0192743D01*
X0242279Y0192666D01*
X0242140Y0192593D01*
X0241999Y0192523D01*
X0241856Y0192456D01*
X0241711Y0192393D01*
X0241565Y0192334D01*
X0241417Y0192278D01*
X0241268Y0192227D01*
X0241118Y0192179D01*
X0240967Y0192135D01*
X0240814Y0192094D01*
X0240661Y0192058D01*
X0240506Y0192025D01*
X0240351Y0191996D01*
X0240196Y0191972D01*
X0240039Y0191951D01*
X0239883Y0191934D01*
X0239725Y0191921D01*
X0239568Y0191912D01*
X0239410Y0191907D01*
X0239253Y0191906D01*
X0239095Y0191909D01*
X0238937Y0191916D01*
X0238780Y0191927D01*
X0238623Y0191942D01*
X0238466Y0191961D01*
X0238310Y0191984D01*
X0238155Y0192010D01*
X0238000Y0192041D01*
X0237846Y0192075D01*
X0237693Y0192114D01*
X0237541Y0192156D01*
X0237391Y0192202D01*
X0237241Y0192252D01*
X0237093Y0192306D01*
X0236946Y0192363D01*
X0236800Y0192424D01*
X0236657Y0192489D01*
X0236514Y0192557D01*
X0236374Y0192629D01*
X0236236Y0192704D01*
X0236099Y0192783D01*
X0235964Y0192865D01*
X0235832Y0192951D01*
X0235702Y0193040D01*
X0235574Y0193132D01*
X0235448Y0193228D01*
X0235325Y0193326D01*
X0235205Y0193428D01*
X0235087Y0193533D01*
X0234971Y0193640D01*
X0234859Y0193751D01*
X0234749Y0193864D01*
X0234642Y0193980D01*
X0234538Y0194098D01*
X0234437Y0194220D01*
X0234340Y0194343D01*
X0234245Y0194470D01*
X0234154Y0194598D01*
X0234065Y0194729D01*
X0233981Y0194862D01*
X0233899Y0194997D01*
X0233821Y0195134D01*
X0233747Y0195273D01*
X0233676Y0195414D01*
X0233608Y0195556D01*
X0233545Y0195701D01*
X0233484Y0195846D01*
X0233428Y0195994D01*
X0233375Y0196142D01*
X0233326Y0196292D01*
X0233281Y0196443D01*
X0233240Y0196596D01*
X0233202Y0196749D01*
X0233169Y0196903D01*
X0233139Y0197058D01*
X0233113Y0197213D01*
X0233092Y0197370D01*
X0233074Y0197526D01*
X0233060Y0197683D01*
X0233050Y0197841D01*
X0233044Y0197998D01*
X0233042Y0198156D01*
D11*
X0193531Y0265718D02*
X0193531Y0268920D01*
X0192464Y0269988D01*
X0190329Y0269988D01*
X0189261Y0268920D01*
X0187086Y0269988D02*
X0183883Y0269988D01*
X0182816Y0268920D01*
X0182816Y0266785D01*
X0183883Y0265718D01*
X0187086Y0265718D01*
X0189261Y0265718D02*
X0189261Y0272123D01*
X0180641Y0268920D02*
X0180641Y0265718D01*
X0180641Y0268920D02*
X0179573Y0269988D01*
X0176370Y0269988D01*
X0176370Y0265718D01*
X0174208Y0265718D02*
X0172073Y0265718D01*
X0173141Y0265718D02*
X0173141Y0269988D01*
X0172073Y0269988D01*
X0173141Y0272123D02*
X0173141Y0273191D01*
X0169898Y0271056D02*
X0165628Y0266785D01*
X0166695Y0265718D01*
X0168830Y0265718D01*
X0169898Y0266785D01*
X0169898Y0271056D01*
X0168830Y0272123D01*
X0166695Y0272123D01*
X0165628Y0271056D01*
X0165628Y0266785D01*
X0163453Y0266785D02*
X0162385Y0265718D01*
X0160250Y0265718D01*
X0159182Y0266785D01*
X0159182Y0268920D02*
X0161317Y0269988D01*
X0162385Y0269988D01*
X0163453Y0268920D01*
X0163453Y0266785D01*
X0159182Y0268920D02*
X0159182Y0272123D01*
X0163453Y0272123D01*
X0157007Y0272123D02*
X0157007Y0271056D01*
X0152737Y0266785D01*
X0152737Y0265718D01*
X0150582Y0265718D02*
X0149514Y0265718D01*
X0149514Y0266785D01*
X0150582Y0266785D01*
X0150582Y0265718D01*
X0147339Y0265718D02*
X0143068Y0265718D01*
X0145204Y0265718D02*
X0145204Y0272123D01*
X0143068Y0269988D01*
X0152737Y0272123D02*
X0157007Y0272123D01*
X0064231Y0204895D02*
X0061028Y0204895D01*
X0059960Y0203827D01*
X0059960Y0201692D01*
X0061028Y0200625D01*
X0059960Y0198449D02*
X0059960Y0195247D01*
X0061028Y0194179D01*
X0063163Y0194179D01*
X0064231Y0195247D01*
X0064231Y0198449D01*
X0064231Y0200625D02*
X0057825Y0200625D01*
X0061028Y0192004D02*
X0064231Y0192004D01*
X0061028Y0192004D02*
X0059960Y0190936D01*
X0059960Y0187734D01*
X0064231Y0187734D01*
X0064231Y0185572D02*
X0064231Y0183437D01*
X0064231Y0184504D02*
X0059960Y0184504D01*
X0059960Y0183437D01*
X0057825Y0184504D02*
X0056758Y0184504D01*
X0058893Y0181261D02*
X0063163Y0176991D01*
X0064231Y0178059D01*
X0064231Y0180194D01*
X0063163Y0181261D01*
X0058893Y0181261D01*
X0057825Y0180194D01*
X0057825Y0178059D01*
X0058893Y0176991D01*
X0063163Y0176991D01*
X0063163Y0174816D02*
X0061028Y0174816D01*
X0059960Y0173748D01*
X0059960Y0172681D01*
X0061028Y0170546D01*
X0057825Y0170546D01*
X0057825Y0174816D01*
X0063163Y0174816D02*
X0064231Y0173748D01*
X0064231Y0171613D01*
X0063163Y0170546D01*
X0063163Y0168370D02*
X0061028Y0168370D01*
X0059960Y0167303D01*
X0059960Y0166235D01*
X0061028Y0164100D01*
X0057825Y0164100D01*
X0057825Y0168370D01*
X0063163Y0168370D02*
X0064231Y0167303D01*
X0064231Y0165168D01*
X0063163Y0164100D01*
X0063163Y0161945D02*
X0064231Y0161945D01*
X0064231Y0160877D01*
X0063163Y0160877D01*
X0063163Y0161945D01*
X0064231Y0158702D02*
X0064231Y0154432D01*
X0064231Y0156567D02*
X0057825Y0156567D01*
X0059960Y0154432D01*
X0302092Y0082361D02*
X0302092Y0075956D01*
X0302092Y0071861D02*
X0306363Y0071861D01*
X0304228Y0071861D02*
X0304228Y0065456D01*
X0308538Y0065456D02*
X0308538Y0071861D01*
X0309606Y0069726D02*
X0311741Y0069726D01*
X0312808Y0068659D01*
X0312808Y0065456D01*
X0314983Y0065456D02*
X0317119Y0065456D01*
X0316051Y0065456D02*
X0316051Y0069726D01*
X0314983Y0069726D01*
X0316051Y0071861D02*
X0316051Y0072929D01*
X0317119Y0075956D02*
X0316051Y0077023D01*
X0316051Y0081294D01*
X0314983Y0080226D02*
X0317119Y0080226D01*
X0319280Y0079159D02*
X0320348Y0080226D01*
X0322483Y0080226D01*
X0323551Y0079159D01*
X0323551Y0078091D01*
X0319280Y0078091D01*
X0319280Y0077023D02*
X0319280Y0079159D01*
X0319280Y0077023D02*
X0320348Y0075956D01*
X0322483Y0075956D01*
X0325726Y0075956D02*
X0325726Y0080226D01*
X0325726Y0078091D02*
X0327861Y0080226D01*
X0328929Y0080226D01*
X0331097Y0080226D02*
X0332165Y0080226D01*
X0332165Y0075956D01*
X0333232Y0075956D02*
X0331097Y0075956D01*
X0335394Y0077023D02*
X0336462Y0078091D01*
X0339665Y0078091D01*
X0339665Y0079159D02*
X0339665Y0075956D01*
X0336462Y0075956D01*
X0335394Y0077023D01*
X0336462Y0080226D02*
X0338597Y0080226D01*
X0339665Y0079159D01*
X0341840Y0075956D02*
X0343975Y0075956D01*
X0342907Y0075956D02*
X0342907Y0082361D01*
X0341840Y0082361D01*
X0346137Y0080226D02*
X0346137Y0079159D01*
X0347204Y0079159D01*
X0347204Y0080226D01*
X0346137Y0080226D01*
X0346137Y0077023D02*
X0346137Y0075956D01*
X0347204Y0075956D01*
X0347204Y0077023D01*
X0346137Y0077023D01*
X0355805Y0075956D02*
X0355805Y0082361D01*
X0360075Y0082361D01*
X0362250Y0082361D02*
X0365453Y0082361D01*
X0366521Y0081294D01*
X0366521Y0079159D01*
X0365453Y0078091D01*
X0362250Y0078091D01*
X0362250Y0075956D02*
X0362250Y0082361D01*
X0364386Y0078091D02*
X0366521Y0075956D01*
X0368696Y0079159D02*
X0372966Y0079159D01*
X0371899Y0082361D02*
X0371899Y0075956D01*
X0368696Y0079159D02*
X0371899Y0082361D01*
X0357940Y0079159D02*
X0355805Y0079159D01*
X0366547Y0070794D02*
X0367615Y0071861D01*
X0369750Y0071861D01*
X0370818Y0070794D01*
X0366547Y0066523D01*
X0367615Y0065456D01*
X0369750Y0065456D01*
X0370818Y0066523D01*
X0370818Y0070794D01*
X0366547Y0070794D02*
X0366547Y0066523D01*
X0372993Y0066523D02*
X0374060Y0066523D01*
X0374060Y0065456D01*
X0372993Y0065456D01*
X0372993Y0066523D01*
X0376216Y0066523D02*
X0376216Y0070794D01*
X0377283Y0071861D01*
X0379418Y0071861D01*
X0380486Y0070794D01*
X0376216Y0066523D01*
X0377283Y0065456D01*
X0379418Y0065456D01*
X0380486Y0066523D01*
X0380486Y0070794D01*
X0382661Y0068659D02*
X0385864Y0068659D01*
X0386931Y0067591D01*
X0386931Y0066523D01*
X0385864Y0065456D01*
X0383729Y0065456D01*
X0382661Y0066523D01*
X0382661Y0068659D01*
X0384796Y0070794D01*
X0386931Y0071861D01*
X0389107Y0070794D02*
X0390174Y0071861D01*
X0392309Y0071861D01*
X0393377Y0070794D01*
X0393377Y0069726D01*
X0389107Y0065456D01*
X0393377Y0065456D01*
X0395552Y0069726D02*
X0396620Y0070794D01*
X0396620Y0072929D01*
X0398755Y0072929D02*
X0398755Y0070794D01*
X0397687Y0069726D01*
X0401991Y0061361D02*
X0400923Y0060294D01*
X0400923Y0059226D01*
X0405194Y0054956D01*
X0405194Y0057091D02*
X0403059Y0054956D01*
X0401991Y0054956D01*
X0400923Y0056023D01*
X0400923Y0057091D01*
X0403059Y0059226D01*
X0403059Y0060294D01*
X0401991Y0061361D01*
X0392303Y0058159D02*
X0392303Y0056023D01*
X0391235Y0054956D01*
X0388032Y0054956D01*
X0388032Y0052821D02*
X0388032Y0059226D01*
X0391235Y0059226D01*
X0392303Y0058159D01*
X0385857Y0058159D02*
X0385857Y0056023D01*
X0384790Y0054956D01*
X0382654Y0054956D01*
X0381587Y0056023D01*
X0381587Y0058159D01*
X0382654Y0059226D01*
X0384790Y0059226D01*
X0385857Y0058159D01*
X0379412Y0061361D02*
X0375141Y0061361D01*
X0377277Y0061361D02*
X0377277Y0054956D01*
X0375121Y0050861D02*
X0372986Y0050861D01*
X0371919Y0049794D01*
X0371919Y0045523D01*
X0372986Y0044456D01*
X0375121Y0044456D01*
X0376189Y0045523D01*
X0376189Y0047659D01*
X0374054Y0047659D01*
X0376189Y0049794D02*
X0375121Y0050861D01*
X0378364Y0048726D02*
X0378364Y0044456D01*
X0378364Y0046591D02*
X0380499Y0048726D01*
X0381567Y0048726D01*
X0383735Y0047659D02*
X0384803Y0048726D01*
X0386938Y0048726D01*
X0388006Y0047659D01*
X0388006Y0046591D01*
X0383735Y0046591D01*
X0383735Y0045523D02*
X0383735Y0047659D01*
X0383735Y0045523D02*
X0384803Y0044456D01*
X0386938Y0044456D01*
X0390181Y0045523D02*
X0390181Y0047659D01*
X0391248Y0048726D01*
X0393384Y0048726D01*
X0394451Y0047659D01*
X0394451Y0046591D01*
X0390181Y0046591D01*
X0390181Y0045523D02*
X0391248Y0044456D01*
X0393384Y0044456D01*
X0396626Y0044456D02*
X0396626Y0048726D01*
X0399829Y0048726D01*
X0400897Y0047659D01*
X0400897Y0044456D01*
X0399829Y0038226D02*
X0397694Y0038226D01*
X0396626Y0037159D01*
X0396626Y0035023D01*
X0397694Y0033956D01*
X0399829Y0033956D01*
X0400897Y0036091D02*
X0396626Y0036091D01*
X0394451Y0036091D02*
X0390181Y0036091D01*
X0390181Y0035023D02*
X0390181Y0037159D01*
X0391248Y0038226D01*
X0393384Y0038226D01*
X0394451Y0037159D01*
X0394451Y0036091D01*
X0393384Y0033956D02*
X0391248Y0033956D01*
X0390181Y0035023D01*
X0388012Y0038226D02*
X0386945Y0038226D01*
X0384810Y0036091D01*
X0384810Y0033956D02*
X0384810Y0038226D01*
X0382634Y0040361D02*
X0378364Y0040361D01*
X0378364Y0033956D01*
X0376216Y0029861D02*
X0376216Y0023456D01*
X0374040Y0023456D02*
X0374040Y0029861D01*
X0376216Y0026659D02*
X0377283Y0027726D01*
X0379418Y0027726D01*
X0380486Y0026659D01*
X0380486Y0023456D01*
X0382661Y0023456D02*
X0384796Y0023456D01*
X0383729Y0023456D02*
X0383729Y0027726D01*
X0382661Y0027726D01*
X0383729Y0029861D02*
X0383729Y0030929D01*
X0386958Y0027726D02*
X0389093Y0027726D01*
X0388026Y0028794D02*
X0388026Y0024523D01*
X0389093Y0023456D01*
X0391255Y0024523D02*
X0391255Y0026659D01*
X0392323Y0027726D01*
X0394458Y0027726D01*
X0395525Y0026659D01*
X0395525Y0025591D01*
X0391255Y0025591D01*
X0391255Y0024523D02*
X0392323Y0023456D01*
X0394458Y0023456D01*
X0404146Y0029861D02*
X0408416Y0029861D01*
X0406281Y0029861D02*
X0406281Y0023456D01*
X0410592Y0024523D02*
X0410592Y0026659D01*
X0411659Y0027726D01*
X0413794Y0027726D01*
X0414862Y0026659D01*
X0414862Y0024523D01*
X0413794Y0023456D01*
X0411659Y0023456D01*
X0410592Y0024523D01*
X0417037Y0023456D02*
X0420240Y0023456D01*
X0421307Y0024523D01*
X0421307Y0026659D01*
X0420240Y0027726D01*
X0417037Y0027726D01*
X0417037Y0021321D01*
X0429928Y0024523D02*
X0429928Y0025591D01*
X0432063Y0027726D01*
X0432063Y0028794D01*
X0430996Y0029861D01*
X0429928Y0028794D01*
X0429928Y0027726D01*
X0434198Y0023456D01*
X0434198Y0025591D02*
X0432063Y0023456D01*
X0430996Y0023456D01*
X0429928Y0024523D01*
X0442819Y0023456D02*
X0446022Y0023456D01*
X0447089Y0024523D01*
X0447089Y0025591D01*
X0446022Y0026659D01*
X0442819Y0026659D01*
X0442819Y0029861D02*
X0442819Y0023456D01*
X0446022Y0026659D02*
X0447089Y0027726D01*
X0447089Y0028794D01*
X0446022Y0029861D01*
X0442819Y0029861D01*
X0449265Y0026659D02*
X0449265Y0024523D01*
X0450332Y0023456D01*
X0452467Y0023456D01*
X0453535Y0024523D01*
X0453535Y0026659D01*
X0452467Y0027726D01*
X0450332Y0027726D01*
X0449265Y0026659D01*
X0455710Y0027726D02*
X0457845Y0027726D01*
X0456778Y0028794D02*
X0456778Y0024523D01*
X0457845Y0023456D01*
X0461075Y0024523D02*
X0462142Y0023456D01*
X0461075Y0024523D02*
X0461075Y0028794D01*
X0462142Y0027726D02*
X0460007Y0027726D01*
X0464304Y0026659D02*
X0464304Y0024523D01*
X0465372Y0023456D01*
X0467507Y0023456D01*
X0468574Y0024523D01*
X0468574Y0026659D01*
X0467507Y0027726D01*
X0465372Y0027726D01*
X0464304Y0026659D01*
X0470750Y0027726D02*
X0470750Y0023456D01*
X0472885Y0023456D02*
X0472885Y0026659D01*
X0473952Y0027726D01*
X0475020Y0026659D01*
X0475020Y0023456D01*
X0472885Y0026659D02*
X0471817Y0027726D01*
X0470750Y0027726D01*
X0470743Y0044456D02*
X0469675Y0045523D01*
X0469675Y0047659D01*
X0470743Y0048726D01*
X0472878Y0048726D01*
X0473946Y0047659D01*
X0473946Y0045523D01*
X0472878Y0044456D01*
X0470743Y0044456D01*
X0467514Y0044456D02*
X0466446Y0045523D01*
X0466446Y0049794D01*
X0465378Y0048726D02*
X0467514Y0048726D01*
X0463217Y0048726D02*
X0461081Y0048726D01*
X0462149Y0049794D02*
X0462149Y0045523D01*
X0463217Y0044456D01*
X0458906Y0045523D02*
X0458906Y0047659D01*
X0457839Y0048726D01*
X0455703Y0048726D01*
X0454636Y0047659D01*
X0454636Y0045523D01*
X0455703Y0044456D01*
X0457839Y0044456D01*
X0458906Y0045523D01*
X0452461Y0045523D02*
X0451393Y0044456D01*
X0448190Y0044456D01*
X0448190Y0050861D01*
X0451393Y0050861D01*
X0452461Y0049794D01*
X0452461Y0048726D01*
X0451393Y0047659D01*
X0448190Y0047659D01*
X0451393Y0047659D02*
X0452461Y0046591D01*
X0452461Y0045523D01*
X0446015Y0054956D02*
X0446015Y0058159D01*
X0444948Y0059226D01*
X0443880Y0058159D01*
X0443880Y0054956D01*
X0441745Y0054956D02*
X0441745Y0059226D01*
X0442812Y0059226D01*
X0443880Y0058159D01*
X0439570Y0058159D02*
X0439570Y0056023D01*
X0438502Y0054956D01*
X0436367Y0054956D01*
X0435299Y0056023D01*
X0435299Y0058159D01*
X0436367Y0059226D01*
X0438502Y0059226D01*
X0439570Y0058159D01*
X0433138Y0059226D02*
X0431002Y0059226D01*
X0432070Y0060294D02*
X0432070Y0056023D01*
X0433138Y0054956D01*
X0428841Y0054956D02*
X0427773Y0056023D01*
X0427773Y0060294D01*
X0426705Y0059226D02*
X0428841Y0059226D01*
X0424530Y0058159D02*
X0424530Y0056023D01*
X0423463Y0054956D01*
X0421327Y0054956D01*
X0420260Y0056023D01*
X0420260Y0058159D01*
X0421327Y0059226D01*
X0423463Y0059226D01*
X0424530Y0058159D01*
X0418085Y0059226D02*
X0418085Y0060294D01*
X0417017Y0061361D01*
X0413814Y0061361D01*
X0413814Y0054956D01*
X0417017Y0054956D01*
X0418085Y0056023D01*
X0418085Y0057091D01*
X0417017Y0058159D01*
X0413814Y0058159D01*
X0417017Y0058159D02*
X0418085Y0059226D01*
X0413788Y0050861D02*
X0409517Y0050861D01*
X0411653Y0050861D02*
X0411653Y0044456D01*
X0415963Y0045523D02*
X0417030Y0044456D01*
X0419166Y0044456D01*
X0420233Y0045523D01*
X0420233Y0047659D01*
X0419166Y0048726D01*
X0417030Y0048726D01*
X0415963Y0047659D01*
X0415963Y0045523D01*
X0422408Y0044456D02*
X0425611Y0044456D01*
X0426679Y0045523D01*
X0426679Y0047659D01*
X0425611Y0048726D01*
X0422408Y0048726D01*
X0422408Y0042321D01*
X0435299Y0045523D02*
X0436367Y0044456D01*
X0437435Y0044456D01*
X0439570Y0046591D01*
X0439570Y0044456D02*
X0435299Y0048726D01*
X0435299Y0049794D01*
X0436367Y0050861D01*
X0437435Y0049794D01*
X0437435Y0048726D01*
X0435299Y0046591D01*
X0435299Y0045523D01*
X0400897Y0037159D02*
X0400897Y0036091D01*
X0400897Y0037159D02*
X0399829Y0038226D01*
X0380499Y0037159D02*
X0378364Y0037159D01*
X0369743Y0038226D02*
X0366541Y0038226D01*
X0365473Y0037159D01*
X0365473Y0035023D01*
X0366541Y0033956D01*
X0369743Y0033956D01*
X0369743Y0040361D01*
X0363298Y0037159D02*
X0363298Y0033956D01*
X0360095Y0033956D01*
X0359028Y0035023D01*
X0360095Y0036091D01*
X0363298Y0036091D01*
X0363298Y0037159D02*
X0362230Y0038226D01*
X0360095Y0038226D01*
X0356852Y0037159D02*
X0356852Y0036091D01*
X0352582Y0036091D01*
X0352582Y0035023D02*
X0352582Y0037159D01*
X0353650Y0038226D01*
X0355785Y0038226D01*
X0356852Y0037159D01*
X0353650Y0033956D02*
X0352582Y0035023D01*
X0353650Y0033956D02*
X0355785Y0033956D01*
X0350407Y0033956D02*
X0346137Y0033956D01*
X0346137Y0040361D01*
X0345056Y0044456D02*
X0343988Y0045523D01*
X0345056Y0046591D01*
X0348259Y0046591D01*
X0348259Y0047659D02*
X0348259Y0044456D01*
X0345056Y0044456D01*
X0341813Y0044456D02*
X0341813Y0047659D01*
X0340745Y0048726D01*
X0339678Y0047659D01*
X0339678Y0044456D01*
X0337543Y0044456D02*
X0337543Y0048726D01*
X0338610Y0048726D01*
X0339678Y0047659D01*
X0335374Y0048726D02*
X0334307Y0048726D01*
X0332171Y0046591D01*
X0332171Y0044456D02*
X0332171Y0048726D01*
X0329996Y0047659D02*
X0329996Y0046591D01*
X0325726Y0046591D01*
X0325726Y0045523D02*
X0325726Y0047659D01*
X0326794Y0048726D01*
X0328929Y0048726D01*
X0329996Y0047659D01*
X0328929Y0044456D02*
X0326794Y0044456D01*
X0325726Y0045523D01*
X0323551Y0044456D02*
X0320348Y0044456D01*
X0319280Y0045523D01*
X0319280Y0047659D01*
X0320348Y0048726D01*
X0323551Y0048726D01*
X0323551Y0050861D02*
X0323551Y0044456D01*
X0320348Y0041429D02*
X0320348Y0040361D01*
X0320348Y0038226D02*
X0320348Y0033956D01*
X0319280Y0033956D02*
X0321416Y0033956D01*
X0323577Y0033956D02*
X0326780Y0033956D01*
X0327848Y0035023D01*
X0326780Y0036091D01*
X0324645Y0036091D01*
X0323577Y0037159D01*
X0324645Y0038226D01*
X0327848Y0038226D01*
X0330023Y0037159D02*
X0331091Y0038226D01*
X0333226Y0038226D01*
X0334293Y0037159D01*
X0334293Y0033956D01*
X0336468Y0033956D02*
X0336468Y0035023D01*
X0337536Y0035023D01*
X0337536Y0033956D01*
X0336468Y0033956D01*
X0336468Y0037159D02*
X0336468Y0038226D01*
X0337536Y0038226D01*
X0337536Y0037159D01*
X0336468Y0037159D01*
X0330023Y0040361D02*
X0330023Y0033956D01*
X0330016Y0027726D02*
X0328949Y0026659D01*
X0328949Y0024523D01*
X0330016Y0023456D01*
X0333219Y0023456D01*
X0335394Y0023456D02*
X0335394Y0027726D01*
X0335394Y0025591D02*
X0337529Y0027726D01*
X0338597Y0027726D01*
X0340765Y0026659D02*
X0340765Y0024523D01*
X0341833Y0023456D01*
X0343968Y0023456D01*
X0345036Y0025591D02*
X0340765Y0025591D01*
X0340765Y0026659D02*
X0341833Y0027726D01*
X0343968Y0027726D01*
X0345036Y0026659D01*
X0345036Y0025591D01*
X0347211Y0025591D02*
X0351481Y0025591D01*
X0351481Y0026659D01*
X0350414Y0027726D01*
X0348279Y0027726D01*
X0347211Y0026659D01*
X0347211Y0024523D01*
X0348279Y0023456D01*
X0350414Y0023456D01*
X0353656Y0023456D02*
X0353656Y0027726D01*
X0356859Y0027726D01*
X0357927Y0026659D01*
X0357927Y0023456D01*
X0360102Y0023456D02*
X0360102Y0024523D01*
X0361170Y0024523D01*
X0361170Y0023456D01*
X0360102Y0023456D01*
X0360102Y0026659D02*
X0360102Y0027726D01*
X0361170Y0027726D01*
X0361170Y0026659D01*
X0360102Y0026659D01*
X0369770Y0029861D02*
X0369770Y0023456D01*
X0371905Y0025591D01*
X0374040Y0023456D01*
X0363318Y0044456D02*
X0362250Y0044456D01*
X0362250Y0045523D01*
X0363318Y0045523D01*
X0363318Y0044456D01*
X0363318Y0047659D02*
X0362250Y0047659D01*
X0362250Y0048726D01*
X0363318Y0048726D01*
X0363318Y0047659D01*
X0360082Y0048726D02*
X0356879Y0046591D01*
X0360082Y0044456D01*
X0356879Y0044456D02*
X0356879Y0050861D01*
X0354704Y0048726D02*
X0351501Y0048726D01*
X0350434Y0047659D01*
X0351501Y0046591D01*
X0353636Y0046591D01*
X0354704Y0045523D01*
X0353636Y0044456D01*
X0350434Y0044456D01*
X0348259Y0047659D02*
X0347191Y0048726D01*
X0345056Y0048726D01*
X0340759Y0054956D02*
X0339691Y0054956D01*
X0339691Y0056023D01*
X0340759Y0056023D01*
X0340759Y0054956D01*
X0340759Y0058159D02*
X0339691Y0058159D01*
X0339691Y0059226D01*
X0340759Y0059226D01*
X0340759Y0058159D01*
X0337523Y0059226D02*
X0336455Y0059226D01*
X0334320Y0057091D01*
X0334320Y0054956D02*
X0334320Y0059226D01*
X0332145Y0058159D02*
X0332145Y0057091D01*
X0327874Y0057091D01*
X0327874Y0056023D02*
X0327874Y0058159D01*
X0328942Y0059226D01*
X0331077Y0059226D01*
X0332145Y0058159D01*
X0331077Y0054956D02*
X0328942Y0054956D01*
X0327874Y0056023D01*
X0325699Y0056023D02*
X0324632Y0054956D01*
X0321429Y0054956D01*
X0321429Y0052821D02*
X0321429Y0059226D01*
X0324632Y0059226D01*
X0325699Y0058159D01*
X0325699Y0056023D01*
X0319254Y0056023D02*
X0318186Y0054956D01*
X0314983Y0054956D01*
X0314983Y0052821D02*
X0314983Y0059226D01*
X0318186Y0059226D01*
X0319254Y0058159D01*
X0319254Y0056023D01*
X0312808Y0056023D02*
X0312808Y0058159D01*
X0311741Y0059226D01*
X0309606Y0059226D01*
X0308538Y0058159D01*
X0308538Y0056023D01*
X0309606Y0054956D01*
X0311741Y0054956D01*
X0312808Y0056023D01*
X0306363Y0056023D02*
X0305295Y0054956D01*
X0303160Y0054956D01*
X0302092Y0056023D01*
X0302092Y0060294D01*
X0303160Y0061361D01*
X0305295Y0061361D01*
X0306363Y0060294D01*
X0319280Y0066523D02*
X0320348Y0065456D01*
X0323551Y0065456D01*
X0325726Y0065456D02*
X0325726Y0071861D01*
X0323551Y0069726D02*
X0320348Y0069726D01*
X0319280Y0068659D01*
X0319280Y0066523D01*
X0325726Y0067591D02*
X0328929Y0069726D01*
X0331097Y0069726D02*
X0331097Y0065456D01*
X0328929Y0065456D02*
X0325726Y0067591D01*
X0331097Y0069726D02*
X0334300Y0069726D01*
X0335368Y0068659D01*
X0335368Y0065456D01*
X0337543Y0066523D02*
X0337543Y0068659D01*
X0338610Y0069726D01*
X0340745Y0069726D01*
X0341813Y0068659D01*
X0341813Y0067591D01*
X0337543Y0067591D01*
X0337543Y0066523D02*
X0338610Y0065456D01*
X0340745Y0065456D01*
X0343988Y0065456D02*
X0347191Y0065456D01*
X0348259Y0066523D01*
X0347191Y0067591D01*
X0345056Y0067591D01*
X0343988Y0068659D01*
X0345056Y0069726D01*
X0348259Y0069726D01*
X0350434Y0068659D02*
X0351501Y0067591D01*
X0353636Y0067591D01*
X0354704Y0066523D01*
X0353636Y0065456D01*
X0350434Y0065456D01*
X0350434Y0068659D02*
X0351501Y0069726D01*
X0354704Y0069726D01*
X0356879Y0069726D02*
X0356879Y0068659D01*
X0357947Y0068659D01*
X0357947Y0069726D01*
X0356879Y0069726D01*
X0356879Y0066523D02*
X0356879Y0065456D01*
X0357947Y0065456D01*
X0357947Y0066523D01*
X0356879Y0066523D01*
X0351495Y0061361D02*
X0351495Y0054956D01*
X0353630Y0054956D02*
X0349359Y0054956D01*
X0349359Y0059226D02*
X0351495Y0061361D01*
X0355805Y0058159D02*
X0355805Y0056023D01*
X0356873Y0054956D01*
X0359008Y0054956D01*
X0360075Y0056023D01*
X0360075Y0058159D01*
X0359008Y0059226D01*
X0356873Y0059226D01*
X0355805Y0058159D01*
X0362250Y0059226D02*
X0366521Y0059226D01*
X0362250Y0054956D01*
X0366521Y0054956D01*
X0333219Y0027726D02*
X0330016Y0027726D01*
X0326774Y0027726D02*
X0323571Y0027726D01*
X0322503Y0026659D01*
X0323571Y0025591D01*
X0325706Y0025591D01*
X0326774Y0024523D01*
X0325706Y0023456D01*
X0322503Y0023456D01*
X0320335Y0023456D02*
X0317132Y0025591D01*
X0320335Y0027726D01*
X0317132Y0029861D02*
X0317132Y0023456D01*
X0314970Y0023456D02*
X0312835Y0023456D01*
X0313903Y0023456D02*
X0313903Y0029861D01*
X0312835Y0029861D01*
X0309606Y0029861D02*
X0309606Y0030929D01*
X0309606Y0033956D02*
X0309606Y0038226D01*
X0308538Y0038226D01*
X0309606Y0040361D02*
X0309606Y0041429D01*
X0309606Y0044456D02*
X0308538Y0045523D01*
X0308538Y0047659D01*
X0309606Y0048726D01*
X0311741Y0048726D01*
X0312808Y0047659D01*
X0312808Y0045523D01*
X0311741Y0044456D01*
X0309606Y0044456D01*
X0306363Y0045523D02*
X0305295Y0044456D01*
X0303160Y0044456D01*
X0302092Y0045523D01*
X0303160Y0047659D02*
X0305295Y0047659D01*
X0306363Y0046591D01*
X0306363Y0045523D01*
X0303160Y0047659D02*
X0302092Y0048726D01*
X0302092Y0049794D01*
X0303160Y0050861D01*
X0305295Y0050861D01*
X0306363Y0049794D01*
X0314983Y0050861D02*
X0316051Y0050861D01*
X0316051Y0044456D01*
X0314983Y0044456D02*
X0317119Y0044456D01*
X0316038Y0038226D02*
X0312835Y0038226D01*
X0312835Y0033956D01*
X0310673Y0033956D02*
X0308538Y0033956D01*
X0305295Y0029861D02*
X0303160Y0029861D01*
X0302092Y0028794D01*
X0302092Y0027726D01*
X0303160Y0026659D01*
X0305295Y0026659D01*
X0306363Y0025591D01*
X0306363Y0024523D01*
X0305295Y0023456D01*
X0303160Y0023456D01*
X0302092Y0024523D01*
X0308538Y0023456D02*
X0310673Y0023456D01*
X0309606Y0023456D02*
X0309606Y0027726D01*
X0308538Y0027726D01*
X0306363Y0028794D02*
X0305295Y0029861D01*
X0302092Y0033956D02*
X0302092Y0040361D01*
X0306363Y0040361D01*
X0304228Y0037159D02*
X0302092Y0037159D01*
X0316038Y0038226D02*
X0317105Y0037159D01*
X0317105Y0033956D01*
X0319280Y0038226D02*
X0320348Y0038226D01*
X0308538Y0068659D02*
X0309606Y0069726D01*
X0309606Y0075956D02*
X0308538Y0077023D01*
X0309606Y0078091D01*
X0312808Y0078091D01*
X0312808Y0079159D02*
X0312808Y0075956D01*
X0309606Y0075956D01*
X0306363Y0075956D02*
X0306363Y0082361D01*
X0304228Y0080226D01*
X0302092Y0082361D01*
X0309606Y0080226D02*
X0311741Y0080226D01*
X0312808Y0079159D01*
X0332165Y0082361D02*
X0332165Y0083429D01*
X0476121Y0048726D02*
X0476121Y0044456D01*
X0478256Y0044456D02*
X0478256Y0047659D01*
X0479324Y0048726D01*
X0480391Y0047659D01*
X0480391Y0044456D01*
X0478256Y0047659D02*
X0477188Y0048726D01*
X0476121Y0048726D01*
D12*
X0076792Y0098156D02*
X0059115Y0098156D01*
X0066792Y0098412D02*
X0067816Y0108392D01*
X0068049Y0108392D02*
X0065536Y0108392D01*
X0066792Y0098412D01*
X0065769Y0108392D01*
X0066281Y0108392D02*
X0066792Y0098412D01*
X0067304Y0108392D01*
X0068049Y0108392D02*
X0066792Y0098412D01*
X0066792Y0252900D01*
X0067816Y0242920D01*
X0068049Y0242920D02*
X0065536Y0242920D01*
X0066792Y0252900D01*
X0065769Y0242920D01*
X0066281Y0242920D02*
X0066792Y0252900D01*
X0067304Y0242920D01*
X0068049Y0242920D02*
X0066792Y0252900D01*
X0059115Y0253156D02*
X0076792Y0253156D01*
X0076792Y0270833D01*
X0077048Y0263156D02*
X0087029Y0264180D01*
X0087029Y0264413D02*
X0087029Y0261899D01*
X0077048Y0263156D01*
X0087029Y0262132D01*
X0087029Y0262644D02*
X0077048Y0263156D01*
X0087029Y0263668D01*
X0087029Y0264413D02*
X0077048Y0263156D01*
X0251537Y0263156D01*
X0241556Y0262132D01*
X0241556Y0261899D02*
X0251537Y0263156D01*
X0241556Y0264180D01*
X0241556Y0264413D02*
X0241556Y0261899D01*
X0241556Y0262644D02*
X0251537Y0263156D01*
X0241556Y0263668D01*
X0241556Y0264413D02*
X0251537Y0263156D01*
X0251792Y0270833D02*
X0251792Y0253156D01*
M02*
