%
M48
M72
T01C0.00800
T02C0.01575
T03C0.01969
T04C0.04000
T05C0.05118
T06C0.12500
%
T01
X122792Y110156
X134792Y122156
X141292Y133656
X151792Y128656
X154292Y133656
X164792Y134156
X144292Y145156
X147292Y149656
X147292Y157656
X147292Y172156
X130292Y178156
X121792Y170656
X116792Y172656
X111292Y160156
X97792Y167156
X82792Y167156
X87292Y182656
X97792Y192156
X97792Y196656
X111792Y195156
X122792Y195656
X127292Y196156
X128292Y193156
X118292Y201656
X115292Y201656
X115292Y204656
X118292Y204656
X111792Y211156
X115792Y213156
X103792Y184656
X142792Y186156
X166792Y183156
X174792Y186156
X180292Y187156
X197292Y178656
X207292Y178656
X215292Y175156
X219792Y175156
X207292Y170156
X194792Y165656
X184792Y165656
X184292Y174656
X166292Y174656
X184792Y155656
X194792Y155656
X202792Y152656
X204292Y145156
X202792Y159656
X215292Y131656
X221792Y118156
X193792Y129156
X171292Y121156
X164292Y210656
T02
X221292Y139156
T03
X215792Y153156
X194292Y142156
X191792Y147156
X187292Y142656
X178792Y170656
X179792Y182156
X190792Y191156
X207292Y203156
X218792Y197156
X139292Y178656
X115292Y185156
X110292Y189656
X131292Y213156
X136792Y153156
X108792Y150156
X121792Y130656
X140292Y128656
X142792Y112156
T04
X162292Y119656
X162292Y129656
X162292Y139656
X86792Y188156
X86792Y198156
X86792Y208156
X86792Y223156
X96792Y223156
X106792Y223156
X116792Y223156
X126792Y223156
X136792Y223156
X146792Y223156
X156792Y223156
X166792Y223156
X176792Y223156
X186792Y223156
X196792Y223156
X206792Y223156
X216792Y223156
X226792Y223156
X236792Y223156
X235533Y245998
X225690Y245998
X215848Y245998
X206005Y245998
X196163Y245998
X186320Y245998
X176477Y245998
X166635Y245998
X156792Y245998
X146950Y245998
X137107Y245998
X127265Y245998
X117422Y245998
X107580Y245998
X97737Y245998
X87895Y245998
X171792Y203156
X181792Y203156
X191792Y203156
T05
X84292Y108786
X95710Y108786
X95710Y137526
X84292Y137526
T06
X239292Y110656
X239292Y198156
M30
