G75*
%MOIN*%
%OFA0B0*%
%FSLAX25Y25*%
%IPPOS*%
%LPD*%
%AMOC8*
5,1,8,0,0,1.08239X$1,22.5*
%
%ADD10C,0.00000*%
%ADD11C,0.00500*%
%ADD12C,0.00700*%
%ADD13C,0.00600*%
%ADD14C,0.00512*%
%ADD15R,0.00984X0.00984*%
%ADD16R,0.00886X0.00886*%
%ADD17C,0.02362*%
%ADD18C,0.00800*%
%ADD19C,0.02000*%
D10*
X0076792Y0098156D02*
X0251792Y0098156D01*
X0251792Y0253156D01*
X0076792Y0253156D01*
X0076792Y0098156D01*
X0076812Y0103471D02*
X0076812Y0107998D01*
X0097678Y0107998D01*
X0097678Y0138313D01*
X0076812Y0138313D01*
X0071300Y0138313D01*
X0071300Y0107998D01*
X0076812Y0107998D01*
X0076812Y0138313D01*
X0076812Y0142841D01*
X0124392Y0200156D02*
X0124394Y0200122D01*
X0124400Y0200089D01*
X0124409Y0200057D01*
X0124422Y0200026D01*
X0124438Y0199996D01*
X0124457Y0199969D01*
X0124480Y0199944D01*
X0124505Y0199921D01*
X0124532Y0199902D01*
X0124562Y0199886D01*
X0124593Y0199873D01*
X0124625Y0199864D01*
X0124658Y0199858D01*
X0124692Y0199856D01*
X0124726Y0199858D01*
X0124759Y0199864D01*
X0124791Y0199873D01*
X0124822Y0199886D01*
X0124852Y0199902D01*
X0124879Y0199921D01*
X0124904Y0199944D01*
X0124927Y0199969D01*
X0124946Y0199996D01*
X0124962Y0200026D01*
X0124975Y0200057D01*
X0124984Y0200089D01*
X0124990Y0200122D01*
X0124992Y0200156D01*
X0124990Y0200190D01*
X0124984Y0200223D01*
X0124975Y0200255D01*
X0124962Y0200286D01*
X0124946Y0200316D01*
X0124927Y0200343D01*
X0124904Y0200368D01*
X0124879Y0200391D01*
X0124852Y0200410D01*
X0124822Y0200426D01*
X0124791Y0200439D01*
X0124759Y0200448D01*
X0124726Y0200454D01*
X0124692Y0200456D01*
X0124658Y0200454D01*
X0124625Y0200448D01*
X0124593Y0200439D01*
X0124562Y0200426D01*
X0124532Y0200410D01*
X0124505Y0200391D01*
X0124480Y0200368D01*
X0124457Y0200343D01*
X0124438Y0200316D01*
X0124422Y0200286D01*
X0124409Y0200255D01*
X0124400Y0200223D01*
X0124394Y0200190D01*
X0124392Y0200156D01*
X0132792Y0209456D02*
X0132826Y0209458D01*
X0132859Y0209464D01*
X0132891Y0209473D01*
X0132922Y0209486D01*
X0132952Y0209502D01*
X0132979Y0209521D01*
X0133004Y0209544D01*
X0133027Y0209569D01*
X0133046Y0209596D01*
X0133062Y0209626D01*
X0133075Y0209657D01*
X0133084Y0209689D01*
X0133090Y0209722D01*
X0133092Y0209756D01*
X0133090Y0209790D01*
X0133084Y0209823D01*
X0133075Y0209855D01*
X0133062Y0209886D01*
X0133046Y0209916D01*
X0133027Y0209943D01*
X0133004Y0209968D01*
X0132979Y0209991D01*
X0132952Y0210010D01*
X0132922Y0210026D01*
X0132891Y0210039D01*
X0132859Y0210048D01*
X0132826Y0210054D01*
X0132792Y0210056D01*
X0132758Y0210054D01*
X0132725Y0210048D01*
X0132693Y0210039D01*
X0132662Y0210026D01*
X0132632Y0210010D01*
X0132605Y0209991D01*
X0132580Y0209968D01*
X0132557Y0209943D01*
X0132538Y0209916D01*
X0132522Y0209886D01*
X0132509Y0209855D01*
X0132500Y0209823D01*
X0132494Y0209790D01*
X0132492Y0209756D01*
X0132494Y0209722D01*
X0132500Y0209689D01*
X0132509Y0209657D01*
X0132522Y0209626D01*
X0132538Y0209596D01*
X0132557Y0209569D01*
X0132580Y0209544D01*
X0132605Y0209521D01*
X0132632Y0209502D01*
X0132662Y0209486D01*
X0132693Y0209473D01*
X0132725Y0209464D01*
X0132758Y0209458D01*
X0132792Y0209456D01*
X0233042Y0198156D02*
X0233044Y0198314D01*
X0233050Y0198471D01*
X0233060Y0198629D01*
X0233074Y0198786D01*
X0233092Y0198942D01*
X0233113Y0199099D01*
X0233139Y0199254D01*
X0233169Y0199409D01*
X0233202Y0199563D01*
X0233240Y0199716D01*
X0233281Y0199869D01*
X0233326Y0200020D01*
X0233375Y0200170D01*
X0233428Y0200318D01*
X0233484Y0200466D01*
X0233545Y0200611D01*
X0233608Y0200756D01*
X0233676Y0200898D01*
X0233747Y0201039D01*
X0233821Y0201178D01*
X0233899Y0201315D01*
X0233981Y0201450D01*
X0234065Y0201583D01*
X0234154Y0201714D01*
X0234245Y0201842D01*
X0234340Y0201969D01*
X0234437Y0202092D01*
X0234538Y0202214D01*
X0234642Y0202332D01*
X0234749Y0202448D01*
X0234859Y0202561D01*
X0234971Y0202672D01*
X0235087Y0202779D01*
X0235205Y0202884D01*
X0235325Y0202986D01*
X0235448Y0203084D01*
X0235574Y0203180D01*
X0235702Y0203272D01*
X0235832Y0203361D01*
X0235964Y0203447D01*
X0236099Y0203529D01*
X0236236Y0203608D01*
X0236374Y0203683D01*
X0236514Y0203755D01*
X0236657Y0203823D01*
X0236800Y0203888D01*
X0236946Y0203949D01*
X0237093Y0204006D01*
X0237241Y0204060D01*
X0237391Y0204110D01*
X0237541Y0204156D01*
X0237693Y0204198D01*
X0237846Y0204237D01*
X0238000Y0204271D01*
X0238155Y0204302D01*
X0238310Y0204328D01*
X0238466Y0204351D01*
X0238623Y0204370D01*
X0238780Y0204385D01*
X0238937Y0204396D01*
X0239095Y0204403D01*
X0239253Y0204406D01*
X0239410Y0204405D01*
X0239568Y0204400D01*
X0239725Y0204391D01*
X0239883Y0204378D01*
X0240039Y0204361D01*
X0240196Y0204340D01*
X0240351Y0204316D01*
X0240506Y0204287D01*
X0240661Y0204254D01*
X0240814Y0204218D01*
X0240967Y0204177D01*
X0241118Y0204133D01*
X0241268Y0204085D01*
X0241417Y0204034D01*
X0241565Y0203978D01*
X0241711Y0203919D01*
X0241856Y0203856D01*
X0241999Y0203789D01*
X0242140Y0203719D01*
X0242279Y0203646D01*
X0242417Y0203569D01*
X0242553Y0203488D01*
X0242686Y0203404D01*
X0242817Y0203317D01*
X0242946Y0203226D01*
X0243073Y0203132D01*
X0243198Y0203035D01*
X0243319Y0202935D01*
X0243439Y0202832D01*
X0243555Y0202726D01*
X0243669Y0202617D01*
X0243781Y0202505D01*
X0243889Y0202391D01*
X0243994Y0202273D01*
X0244097Y0202153D01*
X0244196Y0202031D01*
X0244292Y0201906D01*
X0244385Y0201778D01*
X0244475Y0201649D01*
X0244561Y0201517D01*
X0244645Y0201383D01*
X0244724Y0201247D01*
X0244801Y0201109D01*
X0244873Y0200969D01*
X0244942Y0200827D01*
X0245008Y0200684D01*
X0245070Y0200539D01*
X0245128Y0200392D01*
X0245183Y0200244D01*
X0245234Y0200095D01*
X0245281Y0199944D01*
X0245324Y0199793D01*
X0245363Y0199640D01*
X0245399Y0199486D01*
X0245430Y0199332D01*
X0245458Y0199177D01*
X0245482Y0199021D01*
X0245502Y0198864D01*
X0245518Y0198707D01*
X0245530Y0198550D01*
X0245538Y0198393D01*
X0245542Y0198235D01*
X0245542Y0198077D01*
X0245538Y0197919D01*
X0245530Y0197762D01*
X0245518Y0197605D01*
X0245502Y0197448D01*
X0245482Y0197291D01*
X0245458Y0197135D01*
X0245430Y0196980D01*
X0245399Y0196826D01*
X0245363Y0196672D01*
X0245324Y0196519D01*
X0245281Y0196368D01*
X0245234Y0196217D01*
X0245183Y0196068D01*
X0245128Y0195920D01*
X0245070Y0195773D01*
X0245008Y0195628D01*
X0244942Y0195485D01*
X0244873Y0195343D01*
X0244801Y0195203D01*
X0244724Y0195065D01*
X0244645Y0194929D01*
X0244561Y0194795D01*
X0244475Y0194663D01*
X0244385Y0194534D01*
X0244292Y0194406D01*
X0244196Y0194281D01*
X0244097Y0194159D01*
X0243994Y0194039D01*
X0243889Y0193921D01*
X0243781Y0193807D01*
X0243669Y0193695D01*
X0243555Y0193586D01*
X0243439Y0193480D01*
X0243319Y0193377D01*
X0243198Y0193277D01*
X0243073Y0193180D01*
X0242946Y0193086D01*
X0242817Y0192995D01*
X0242686Y0192908D01*
X0242553Y0192824D01*
X0242417Y0192743D01*
X0242279Y0192666D01*
X0242140Y0192593D01*
X0241999Y0192523D01*
X0241856Y0192456D01*
X0241711Y0192393D01*
X0241565Y0192334D01*
X0241417Y0192278D01*
X0241268Y0192227D01*
X0241118Y0192179D01*
X0240967Y0192135D01*
X0240814Y0192094D01*
X0240661Y0192058D01*
X0240506Y0192025D01*
X0240351Y0191996D01*
X0240196Y0191972D01*
X0240039Y0191951D01*
X0239883Y0191934D01*
X0239725Y0191921D01*
X0239568Y0191912D01*
X0239410Y0191907D01*
X0239253Y0191906D01*
X0239095Y0191909D01*
X0238937Y0191916D01*
X0238780Y0191927D01*
X0238623Y0191942D01*
X0238466Y0191961D01*
X0238310Y0191984D01*
X0238155Y0192010D01*
X0238000Y0192041D01*
X0237846Y0192075D01*
X0237693Y0192114D01*
X0237541Y0192156D01*
X0237391Y0192202D01*
X0237241Y0192252D01*
X0237093Y0192306D01*
X0236946Y0192363D01*
X0236800Y0192424D01*
X0236657Y0192489D01*
X0236514Y0192557D01*
X0236374Y0192629D01*
X0236236Y0192704D01*
X0236099Y0192783D01*
X0235964Y0192865D01*
X0235832Y0192951D01*
X0235702Y0193040D01*
X0235574Y0193132D01*
X0235448Y0193228D01*
X0235325Y0193326D01*
X0235205Y0193428D01*
X0235087Y0193533D01*
X0234971Y0193640D01*
X0234859Y0193751D01*
X0234749Y0193864D01*
X0234642Y0193980D01*
X0234538Y0194098D01*
X0234437Y0194220D01*
X0234340Y0194343D01*
X0234245Y0194470D01*
X0234154Y0194598D01*
X0234065Y0194729D01*
X0233981Y0194862D01*
X0233899Y0194997D01*
X0233821Y0195134D01*
X0233747Y0195273D01*
X0233676Y0195414D01*
X0233608Y0195556D01*
X0233545Y0195701D01*
X0233484Y0195846D01*
X0233428Y0195994D01*
X0233375Y0196142D01*
X0233326Y0196292D01*
X0233281Y0196443D01*
X0233240Y0196596D01*
X0233202Y0196749D01*
X0233169Y0196903D01*
X0233139Y0197058D01*
X0233113Y0197213D01*
X0233092Y0197370D01*
X0233074Y0197526D01*
X0233060Y0197683D01*
X0233050Y0197841D01*
X0233044Y0197998D01*
X0233042Y0198156D01*
X0233042Y0110656D02*
X0233044Y0110814D01*
X0233050Y0110971D01*
X0233060Y0111129D01*
X0233074Y0111286D01*
X0233092Y0111442D01*
X0233113Y0111599D01*
X0233139Y0111754D01*
X0233169Y0111909D01*
X0233202Y0112063D01*
X0233240Y0112216D01*
X0233281Y0112369D01*
X0233326Y0112520D01*
X0233375Y0112670D01*
X0233428Y0112818D01*
X0233484Y0112966D01*
X0233545Y0113111D01*
X0233608Y0113256D01*
X0233676Y0113398D01*
X0233747Y0113539D01*
X0233821Y0113678D01*
X0233899Y0113815D01*
X0233981Y0113950D01*
X0234065Y0114083D01*
X0234154Y0114214D01*
X0234245Y0114342D01*
X0234340Y0114469D01*
X0234437Y0114592D01*
X0234538Y0114714D01*
X0234642Y0114832D01*
X0234749Y0114948D01*
X0234859Y0115061D01*
X0234971Y0115172D01*
X0235087Y0115279D01*
X0235205Y0115384D01*
X0235325Y0115486D01*
X0235448Y0115584D01*
X0235574Y0115680D01*
X0235702Y0115772D01*
X0235832Y0115861D01*
X0235964Y0115947D01*
X0236099Y0116029D01*
X0236236Y0116108D01*
X0236374Y0116183D01*
X0236514Y0116255D01*
X0236657Y0116323D01*
X0236800Y0116388D01*
X0236946Y0116449D01*
X0237093Y0116506D01*
X0237241Y0116560D01*
X0237391Y0116610D01*
X0237541Y0116656D01*
X0237693Y0116698D01*
X0237846Y0116737D01*
X0238000Y0116771D01*
X0238155Y0116802D01*
X0238310Y0116828D01*
X0238466Y0116851D01*
X0238623Y0116870D01*
X0238780Y0116885D01*
X0238937Y0116896D01*
X0239095Y0116903D01*
X0239253Y0116906D01*
X0239410Y0116905D01*
X0239568Y0116900D01*
X0239725Y0116891D01*
X0239883Y0116878D01*
X0240039Y0116861D01*
X0240196Y0116840D01*
X0240351Y0116816D01*
X0240506Y0116787D01*
X0240661Y0116754D01*
X0240814Y0116718D01*
X0240967Y0116677D01*
X0241118Y0116633D01*
X0241268Y0116585D01*
X0241417Y0116534D01*
X0241565Y0116478D01*
X0241711Y0116419D01*
X0241856Y0116356D01*
X0241999Y0116289D01*
X0242140Y0116219D01*
X0242279Y0116146D01*
X0242417Y0116069D01*
X0242553Y0115988D01*
X0242686Y0115904D01*
X0242817Y0115817D01*
X0242946Y0115726D01*
X0243073Y0115632D01*
X0243198Y0115535D01*
X0243319Y0115435D01*
X0243439Y0115332D01*
X0243555Y0115226D01*
X0243669Y0115117D01*
X0243781Y0115005D01*
X0243889Y0114891D01*
X0243994Y0114773D01*
X0244097Y0114653D01*
X0244196Y0114531D01*
X0244292Y0114406D01*
X0244385Y0114278D01*
X0244475Y0114149D01*
X0244561Y0114017D01*
X0244645Y0113883D01*
X0244724Y0113747D01*
X0244801Y0113609D01*
X0244873Y0113469D01*
X0244942Y0113327D01*
X0245008Y0113184D01*
X0245070Y0113039D01*
X0245128Y0112892D01*
X0245183Y0112744D01*
X0245234Y0112595D01*
X0245281Y0112444D01*
X0245324Y0112293D01*
X0245363Y0112140D01*
X0245399Y0111986D01*
X0245430Y0111832D01*
X0245458Y0111677D01*
X0245482Y0111521D01*
X0245502Y0111364D01*
X0245518Y0111207D01*
X0245530Y0111050D01*
X0245538Y0110893D01*
X0245542Y0110735D01*
X0245542Y0110577D01*
X0245538Y0110419D01*
X0245530Y0110262D01*
X0245518Y0110105D01*
X0245502Y0109948D01*
X0245482Y0109791D01*
X0245458Y0109635D01*
X0245430Y0109480D01*
X0245399Y0109326D01*
X0245363Y0109172D01*
X0245324Y0109019D01*
X0245281Y0108868D01*
X0245234Y0108717D01*
X0245183Y0108568D01*
X0245128Y0108420D01*
X0245070Y0108273D01*
X0245008Y0108128D01*
X0244942Y0107985D01*
X0244873Y0107843D01*
X0244801Y0107703D01*
X0244724Y0107565D01*
X0244645Y0107429D01*
X0244561Y0107295D01*
X0244475Y0107163D01*
X0244385Y0107034D01*
X0244292Y0106906D01*
X0244196Y0106781D01*
X0244097Y0106659D01*
X0243994Y0106539D01*
X0243889Y0106421D01*
X0243781Y0106307D01*
X0243669Y0106195D01*
X0243555Y0106086D01*
X0243439Y0105980D01*
X0243319Y0105877D01*
X0243198Y0105777D01*
X0243073Y0105680D01*
X0242946Y0105586D01*
X0242817Y0105495D01*
X0242686Y0105408D01*
X0242553Y0105324D01*
X0242417Y0105243D01*
X0242279Y0105166D01*
X0242140Y0105093D01*
X0241999Y0105023D01*
X0241856Y0104956D01*
X0241711Y0104893D01*
X0241565Y0104834D01*
X0241417Y0104778D01*
X0241268Y0104727D01*
X0241118Y0104679D01*
X0240967Y0104635D01*
X0240814Y0104594D01*
X0240661Y0104558D01*
X0240506Y0104525D01*
X0240351Y0104496D01*
X0240196Y0104472D01*
X0240039Y0104451D01*
X0239883Y0104434D01*
X0239725Y0104421D01*
X0239568Y0104412D01*
X0239410Y0104407D01*
X0239253Y0104406D01*
X0239095Y0104409D01*
X0238937Y0104416D01*
X0238780Y0104427D01*
X0238623Y0104442D01*
X0238466Y0104461D01*
X0238310Y0104484D01*
X0238155Y0104510D01*
X0238000Y0104541D01*
X0237846Y0104575D01*
X0237693Y0104614D01*
X0237541Y0104656D01*
X0237391Y0104702D01*
X0237241Y0104752D01*
X0237093Y0104806D01*
X0236946Y0104863D01*
X0236800Y0104924D01*
X0236657Y0104989D01*
X0236514Y0105057D01*
X0236374Y0105129D01*
X0236236Y0105204D01*
X0236099Y0105283D01*
X0235964Y0105365D01*
X0235832Y0105451D01*
X0235702Y0105540D01*
X0235574Y0105632D01*
X0235448Y0105728D01*
X0235325Y0105826D01*
X0235205Y0105928D01*
X0235087Y0106033D01*
X0234971Y0106140D01*
X0234859Y0106251D01*
X0234749Y0106364D01*
X0234642Y0106480D01*
X0234538Y0106598D01*
X0234437Y0106720D01*
X0234340Y0106843D01*
X0234245Y0106970D01*
X0234154Y0107098D01*
X0234065Y0107229D01*
X0233981Y0107362D01*
X0233899Y0107497D01*
X0233821Y0107634D01*
X0233747Y0107773D01*
X0233676Y0107914D01*
X0233608Y0108056D01*
X0233545Y0108201D01*
X0233484Y0108346D01*
X0233428Y0108494D01*
X0233375Y0108642D01*
X0233326Y0108792D01*
X0233281Y0108943D01*
X0233240Y0109096D01*
X0233202Y0109249D01*
X0233169Y0109403D01*
X0233139Y0109558D01*
X0233113Y0109713D01*
X0233092Y0109870D01*
X0233074Y0110026D01*
X0233060Y0110183D01*
X0233050Y0110341D01*
X0233044Y0110498D01*
X0233042Y0110656D01*
D11*
X0229244Y0108409D02*
X0226909Y0108409D01*
X0226909Y0106657D01*
X0228076Y0107241D01*
X0228660Y0107241D01*
X0229244Y0106657D01*
X0229244Y0105490D01*
X0228660Y0104906D01*
X0227493Y0104906D01*
X0226909Y0105490D01*
X0225561Y0104906D02*
X0223226Y0104906D01*
X0224393Y0104906D02*
X0224393Y0108409D01*
X0223226Y0107241D01*
X0221878Y0106657D02*
X0221294Y0106074D01*
X0219542Y0106074D01*
X0219542Y0104906D02*
X0219542Y0108409D01*
X0221294Y0108409D01*
X0221878Y0107825D01*
X0221878Y0106657D01*
X0220710Y0106074D02*
X0221878Y0104906D01*
X0221270Y0117154D02*
X0220103Y0117154D01*
X0219519Y0117738D01*
X0220103Y0118905D02*
X0221270Y0118905D01*
X0221854Y0118322D01*
X0221854Y0117738D01*
X0221270Y0117154D01*
X0223202Y0117154D02*
X0224370Y0118322D01*
X0225537Y0117154D01*
X0225537Y0120657D01*
X0226885Y0119489D02*
X0228053Y0120657D01*
X0228053Y0117154D01*
X0229220Y0117154D02*
X0226885Y0117154D01*
X0223202Y0117154D02*
X0223202Y0120657D01*
X0221854Y0120073D02*
X0221270Y0120657D01*
X0220103Y0120657D01*
X0219519Y0120073D01*
X0219519Y0119489D01*
X0220103Y0118905D01*
X0210542Y0128406D02*
X0207039Y0128406D01*
X0207039Y0130157D01*
X0207623Y0130741D01*
X0208791Y0130741D01*
X0209375Y0130157D01*
X0209375Y0128406D01*
X0209375Y0129574D02*
X0210542Y0130741D01*
X0209959Y0132089D02*
X0210542Y0132673D01*
X0210542Y0133841D01*
X0209959Y0134424D01*
X0207623Y0134424D01*
X0207039Y0133841D01*
X0207039Y0132673D01*
X0207623Y0132089D01*
X0208207Y0132089D01*
X0208791Y0132673D01*
X0208791Y0134424D01*
X0192061Y0133325D02*
X0192061Y0130990D01*
X0191477Y0130406D01*
X0190309Y0130406D01*
X0189726Y0130990D01*
X0190309Y0132157D02*
X0192061Y0132157D01*
X0192061Y0133325D02*
X0191477Y0133909D01*
X0190309Y0133909D01*
X0189726Y0133325D01*
X0189726Y0132741D01*
X0190309Y0132157D01*
X0188378Y0130990D02*
X0187794Y0130406D01*
X0186626Y0130406D01*
X0186042Y0130990D01*
X0186042Y0133325D01*
X0186626Y0133909D01*
X0187794Y0133909D01*
X0188378Y0133325D01*
X0184893Y0129909D02*
X0183726Y0128741D01*
X0182378Y0128157D02*
X0181794Y0127574D01*
X0180042Y0127574D01*
X0180042Y0126406D02*
X0180042Y0129909D01*
X0181794Y0129909D01*
X0182378Y0129325D01*
X0182378Y0128157D01*
X0181210Y0127574D02*
X0182378Y0126406D01*
X0183726Y0126406D02*
X0186061Y0126406D01*
X0184893Y0126406D02*
X0184893Y0129909D01*
X0177287Y0116108D02*
X0176386Y0116108D01*
X0175935Y0115658D01*
X0174791Y0116108D02*
X0173890Y0116108D01*
X0174340Y0116108D02*
X0174340Y0113856D01*
X0173890Y0113406D01*
X0173439Y0113406D01*
X0172989Y0113856D01*
X0171844Y0113856D02*
X0171394Y0113406D01*
X0170493Y0113406D01*
X0170042Y0113856D01*
X0170493Y0114757D02*
X0171394Y0114757D01*
X0171844Y0114307D01*
X0171844Y0113856D01*
X0170493Y0114757D02*
X0170042Y0115207D01*
X0170042Y0115658D01*
X0170493Y0116108D01*
X0171394Y0116108D01*
X0171844Y0115658D01*
X0175935Y0113406D02*
X0177737Y0115207D01*
X0177737Y0115658D01*
X0177287Y0116108D01*
X0177737Y0113406D02*
X0175935Y0113406D01*
X0165705Y0113323D02*
X0165388Y0113006D01*
X0164754Y0113006D01*
X0164438Y0113323D01*
X0165071Y0113957D02*
X0165388Y0113957D01*
X0165705Y0113640D01*
X0165705Y0113323D01*
X0165388Y0113957D02*
X0165705Y0114274D01*
X0165705Y0114591D01*
X0165388Y0114908D01*
X0164754Y0114908D01*
X0164438Y0114591D01*
X0163237Y0113406D02*
X0161435Y0113406D01*
X0162336Y0113406D02*
X0162336Y0116108D01*
X0161435Y0115207D01*
X0160291Y0116108D02*
X0159390Y0116108D01*
X0159840Y0116108D02*
X0159840Y0113856D01*
X0159390Y0113406D01*
X0158939Y0113406D01*
X0158489Y0113856D01*
X0157344Y0113856D02*
X0156894Y0113406D01*
X0155993Y0113406D01*
X0155542Y0113856D01*
X0155993Y0114757D02*
X0156894Y0114757D01*
X0157344Y0114307D01*
X0157344Y0113856D01*
X0155993Y0114757D02*
X0155542Y0115207D01*
X0155542Y0115658D01*
X0155993Y0116108D01*
X0156894Y0116108D01*
X0157344Y0115658D01*
X0145571Y0104408D02*
X0145571Y0102506D01*
X0144938Y0102506D02*
X0146205Y0102506D01*
X0144938Y0103774D02*
X0145571Y0104408D01*
X0140094Y0104800D02*
X0139511Y0104216D01*
X0140094Y0103633D01*
X0140094Y0103049D01*
X0139511Y0102465D01*
X0138343Y0102465D01*
X0137759Y0103049D01*
X0136411Y0102465D02*
X0134076Y0102465D01*
X0135244Y0102465D02*
X0135244Y0105968D01*
X0134076Y0104800D01*
X0132728Y0105384D02*
X0132144Y0105968D01*
X0130977Y0105968D01*
X0130393Y0105384D01*
X0130393Y0103049D01*
X0130977Y0102465D01*
X0132144Y0102465D01*
X0132728Y0103049D01*
X0137759Y0105384D02*
X0138343Y0105968D01*
X0139511Y0105968D01*
X0140094Y0105384D01*
X0140094Y0104800D01*
X0139511Y0104216D02*
X0138927Y0104216D01*
X0127087Y0109415D02*
X0127087Y0109866D01*
X0126637Y0110316D01*
X0125286Y0110316D01*
X0125286Y0109415D01*
X0125736Y0108965D01*
X0126637Y0108965D01*
X0127087Y0109415D01*
X0125286Y0110316D02*
X0126187Y0111217D01*
X0127087Y0111667D01*
X0123240Y0111667D02*
X0123240Y0108965D01*
X0122339Y0108965D02*
X0124141Y0108965D01*
X0122339Y0110766D02*
X0123240Y0111667D01*
X0121194Y0111217D02*
X0120744Y0111667D01*
X0119843Y0111667D01*
X0119393Y0111217D01*
X0119393Y0109415D01*
X0119843Y0108965D01*
X0120744Y0108965D01*
X0121194Y0109415D01*
X0121489Y0115906D02*
X0123291Y0115906D01*
X0122390Y0115906D02*
X0122390Y0118608D01*
X0121489Y0117707D01*
X0120344Y0117257D02*
X0119894Y0116807D01*
X0118542Y0116807D01*
X0118542Y0115906D02*
X0118542Y0118608D01*
X0119894Y0118608D01*
X0120344Y0118158D01*
X0120344Y0117257D01*
X0119443Y0116807D02*
X0120344Y0115906D01*
X0124435Y0116356D02*
X0126237Y0118158D01*
X0126237Y0116356D01*
X0125787Y0115906D01*
X0124886Y0115906D01*
X0124435Y0116356D01*
X0124435Y0118158D01*
X0124886Y0118608D01*
X0125787Y0118608D01*
X0126237Y0118158D01*
X0104542Y0110424D02*
X0104542Y0108089D01*
X0104542Y0109257D02*
X0101039Y0109257D01*
X0102207Y0108089D01*
X0101039Y0106741D02*
X0101039Y0105574D01*
X0101039Y0106157D02*
X0103959Y0106157D01*
X0104542Y0105574D01*
X0104542Y0104990D01*
X0103959Y0104406D01*
X0092011Y0142965D02*
X0092011Y0146468D01*
X0090259Y0144716D01*
X0092594Y0144716D01*
X0088911Y0142965D02*
X0086576Y0142965D01*
X0087744Y0142965D02*
X0087744Y0146468D01*
X0086576Y0145300D01*
X0085228Y0145884D02*
X0084644Y0146468D01*
X0083477Y0146468D01*
X0082893Y0145884D01*
X0082893Y0143549D01*
X0083477Y0142965D01*
X0084644Y0142965D01*
X0085228Y0143549D01*
X0085042Y0148906D02*
X0086794Y0148906D01*
X0087378Y0149490D01*
X0087378Y0151825D01*
X0086794Y0152409D01*
X0085042Y0152409D01*
X0085042Y0148906D01*
X0088726Y0148906D02*
X0091061Y0148906D01*
X0089893Y0148906D02*
X0089893Y0152409D01*
X0088726Y0151241D01*
X0088726Y0157406D02*
X0091061Y0159741D01*
X0091061Y0160325D01*
X0090477Y0160909D01*
X0089309Y0160909D01*
X0088726Y0160325D01*
X0087378Y0160325D02*
X0087378Y0157990D01*
X0086794Y0157406D01*
X0085042Y0157406D01*
X0085042Y0160909D01*
X0086794Y0160909D01*
X0087378Y0160325D01*
X0088726Y0157406D02*
X0091061Y0157406D01*
X0090477Y0165406D02*
X0089309Y0165406D01*
X0088726Y0165990D01*
X0087378Y0165990D02*
X0087378Y0168325D01*
X0086794Y0168909D01*
X0085042Y0168909D01*
X0085042Y0165406D01*
X0086794Y0165406D01*
X0087378Y0165990D01*
X0088726Y0168325D02*
X0089309Y0168909D01*
X0090477Y0168909D01*
X0091061Y0168325D01*
X0091061Y0167741D01*
X0090477Y0167157D01*
X0091061Y0166574D01*
X0091061Y0165990D01*
X0090477Y0165406D01*
X0090477Y0167157D02*
X0089893Y0167157D01*
X0090477Y0173406D02*
X0090477Y0176909D01*
X0088726Y0175157D01*
X0091061Y0175157D01*
X0094042Y0175307D02*
X0095394Y0175307D01*
X0095844Y0175757D01*
X0095844Y0176658D01*
X0095394Y0177108D01*
X0094042Y0177108D01*
X0094042Y0174406D01*
X0094943Y0175307D02*
X0095844Y0174406D01*
X0096989Y0174406D02*
X0098791Y0174406D01*
X0097890Y0174406D02*
X0097890Y0177108D01*
X0096989Y0176207D01*
X0099935Y0175757D02*
X0101737Y0175757D01*
X0101287Y0174406D02*
X0101287Y0177108D01*
X0099935Y0175757D01*
X0104938Y0177006D02*
X0106205Y0177006D01*
X0105571Y0177006D02*
X0105571Y0178908D01*
X0104938Y0178274D01*
X0104542Y0172909D02*
X0106294Y0172909D01*
X0106878Y0172325D01*
X0106878Y0171157D01*
X0106294Y0170574D01*
X0104542Y0170574D01*
X0104542Y0169406D02*
X0104542Y0172909D01*
X0105710Y0170574D02*
X0106878Y0169406D01*
X0108226Y0169406D02*
X0110561Y0169406D01*
X0109393Y0169406D02*
X0109393Y0172909D01*
X0108226Y0171741D01*
X0111909Y0172325D02*
X0112493Y0172909D01*
X0113660Y0172909D01*
X0114244Y0172325D01*
X0114244Y0171741D01*
X0113660Y0171157D01*
X0114244Y0170574D01*
X0114244Y0169990D01*
X0113660Y0169406D01*
X0112493Y0169406D01*
X0111909Y0169990D01*
X0113076Y0171157D02*
X0113660Y0171157D01*
X0115938Y0171006D02*
X0117205Y0172274D01*
X0117205Y0172591D01*
X0116888Y0172908D01*
X0116254Y0172908D01*
X0115938Y0172591D01*
X0115938Y0171006D02*
X0117205Y0171006D01*
X0121938Y0171323D02*
X0122254Y0171006D01*
X0122888Y0171006D01*
X0123205Y0171323D01*
X0123205Y0171640D01*
X0122888Y0171957D01*
X0122571Y0171957D01*
X0122888Y0171957D02*
X0123205Y0172274D01*
X0123205Y0172591D01*
X0122888Y0172908D01*
X0122254Y0172908D01*
X0121938Y0172591D01*
X0119477Y0166909D02*
X0120061Y0166325D01*
X0120061Y0165741D01*
X0119477Y0165157D01*
X0120061Y0164574D01*
X0120061Y0163990D01*
X0119477Y0163406D01*
X0118309Y0163406D01*
X0117726Y0163990D01*
X0116378Y0163406D02*
X0114042Y0163406D01*
X0114042Y0166909D01*
X0117726Y0166325D02*
X0118309Y0166909D01*
X0119477Y0166909D01*
X0119477Y0165157D02*
X0118893Y0165157D01*
X0118893Y0161909D02*
X0118893Y0158406D01*
X0117726Y0158406D02*
X0120061Y0158406D01*
X0121409Y0158990D02*
X0121993Y0158406D01*
X0123160Y0158406D01*
X0123744Y0158990D01*
X0123744Y0160157D01*
X0123160Y0160741D01*
X0122576Y0160741D01*
X0121409Y0160157D01*
X0121409Y0161909D01*
X0123744Y0161909D01*
X0118893Y0161909D02*
X0117726Y0160741D01*
X0116378Y0161325D02*
X0115794Y0161909D01*
X0114626Y0161909D01*
X0114042Y0161325D01*
X0114042Y0158990D01*
X0114626Y0158406D01*
X0115794Y0158406D01*
X0116378Y0158990D01*
X0115794Y0155909D02*
X0114626Y0155909D01*
X0114042Y0155325D01*
X0114042Y0152990D01*
X0114626Y0152406D01*
X0115794Y0152406D01*
X0116378Y0152990D01*
X0117726Y0152406D02*
X0120061Y0152406D01*
X0118893Y0152406D02*
X0118893Y0155909D01*
X0117726Y0154741D01*
X0116378Y0155325D02*
X0115794Y0155909D01*
X0110561Y0155157D02*
X0110561Y0153990D01*
X0109977Y0153406D01*
X0108809Y0153406D01*
X0108226Y0153990D01*
X0108226Y0155157D02*
X0109393Y0155741D01*
X0109977Y0155741D01*
X0110561Y0155157D01*
X0110561Y0156909D02*
X0108226Y0156909D01*
X0108226Y0155157D01*
X0106878Y0155157D02*
X0106294Y0154574D01*
X0104542Y0154574D01*
X0104542Y0153406D02*
X0104542Y0156909D01*
X0106294Y0156909D01*
X0106878Y0156325D01*
X0106878Y0155157D01*
X0105710Y0154574D02*
X0106878Y0153406D01*
X0114042Y0151409D02*
X0115794Y0151409D01*
X0116378Y0150825D01*
X0116378Y0149657D01*
X0115794Y0149074D01*
X0114042Y0149074D01*
X0114042Y0147906D02*
X0114042Y0151409D01*
X0115210Y0149074D02*
X0116378Y0147906D01*
X0117726Y0147906D02*
X0120061Y0147906D01*
X0118893Y0147906D02*
X0118893Y0151409D01*
X0117726Y0150241D01*
X0121409Y0150241D02*
X0122576Y0151409D01*
X0122576Y0147906D01*
X0121409Y0147906D02*
X0123744Y0147906D01*
X0121409Y0152406D02*
X0121409Y0152990D01*
X0123744Y0155325D01*
X0123744Y0155909D01*
X0121409Y0155909D01*
X0109977Y0161406D02*
X0109977Y0164909D01*
X0108226Y0163157D01*
X0110561Y0163157D01*
X0106878Y0163157D02*
X0106294Y0162574D01*
X0104542Y0162574D01*
X0104542Y0161406D02*
X0104542Y0164909D01*
X0106294Y0164909D01*
X0106878Y0164325D01*
X0106878Y0163157D01*
X0105710Y0162574D02*
X0106878Y0161406D01*
X0110432Y0144656D02*
X0110434Y0144714D01*
X0110440Y0144772D01*
X0110450Y0144829D01*
X0110463Y0144886D01*
X0110481Y0144941D01*
X0110502Y0144995D01*
X0110526Y0145048D01*
X0110555Y0145099D01*
X0110586Y0145147D01*
X0110621Y0145194D01*
X0110659Y0145238D01*
X0110699Y0145279D01*
X0110743Y0145318D01*
X0110789Y0145353D01*
X0110837Y0145386D01*
X0110887Y0145415D01*
X0110940Y0145440D01*
X0110993Y0145462D01*
X0111048Y0145481D01*
X0111105Y0145495D01*
X0111162Y0145506D01*
X0111219Y0145513D01*
X0111277Y0145516D01*
X0111336Y0145515D01*
X0111393Y0145510D01*
X0111451Y0145501D01*
X0111508Y0145489D01*
X0111563Y0145472D01*
X0111618Y0145452D01*
X0111671Y0145428D01*
X0111722Y0145401D01*
X0111771Y0145370D01*
X0111818Y0145336D01*
X0111863Y0145299D01*
X0111905Y0145259D01*
X0111945Y0145216D01*
X0111981Y0145171D01*
X0112014Y0145123D01*
X0112044Y0145073D01*
X0112070Y0145022D01*
X0112093Y0144968D01*
X0112113Y0144913D01*
X0112128Y0144857D01*
X0112140Y0144801D01*
X0112148Y0144743D01*
X0112152Y0144685D01*
X0112152Y0144627D01*
X0112148Y0144569D01*
X0112140Y0144511D01*
X0112128Y0144455D01*
X0112113Y0144399D01*
X0112093Y0144344D01*
X0112070Y0144290D01*
X0112044Y0144239D01*
X0112014Y0144189D01*
X0111981Y0144141D01*
X0111945Y0144096D01*
X0111905Y0144053D01*
X0111863Y0144013D01*
X0111818Y0143976D01*
X0111771Y0143942D01*
X0111722Y0143911D01*
X0111671Y0143884D01*
X0111618Y0143860D01*
X0111563Y0143840D01*
X0111508Y0143823D01*
X0111451Y0143811D01*
X0111393Y0143802D01*
X0111336Y0143797D01*
X0111277Y0143796D01*
X0111219Y0143799D01*
X0111162Y0143806D01*
X0111105Y0143817D01*
X0111048Y0143831D01*
X0110993Y0143850D01*
X0110940Y0143872D01*
X0110887Y0143897D01*
X0110837Y0143926D01*
X0110789Y0143959D01*
X0110743Y0143994D01*
X0110699Y0144033D01*
X0110659Y0144074D01*
X0110621Y0144118D01*
X0110586Y0144165D01*
X0110555Y0144213D01*
X0110526Y0144264D01*
X0110502Y0144317D01*
X0110481Y0144371D01*
X0110463Y0144426D01*
X0110450Y0144483D01*
X0110440Y0144540D01*
X0110434Y0144598D01*
X0110432Y0144656D01*
X0111192Y0144656D02*
X0111194Y0144676D01*
X0111200Y0144694D01*
X0111209Y0144712D01*
X0111221Y0144727D01*
X0111236Y0144739D01*
X0111254Y0144748D01*
X0111272Y0144754D01*
X0111292Y0144756D01*
X0111312Y0144754D01*
X0111330Y0144748D01*
X0111348Y0144739D01*
X0111363Y0144727D01*
X0111375Y0144712D01*
X0111384Y0144694D01*
X0111390Y0144676D01*
X0111392Y0144656D01*
X0111390Y0144636D01*
X0111384Y0144618D01*
X0111375Y0144600D01*
X0111363Y0144585D01*
X0111348Y0144573D01*
X0111330Y0144564D01*
X0111312Y0144558D01*
X0111292Y0144556D01*
X0111272Y0144558D01*
X0111254Y0144564D01*
X0111236Y0144573D01*
X0111221Y0144585D01*
X0111209Y0144600D01*
X0111200Y0144618D01*
X0111194Y0144636D01*
X0111192Y0144656D01*
X0110792Y0144656D02*
X0110794Y0144700D01*
X0110800Y0144744D01*
X0110810Y0144787D01*
X0110823Y0144829D01*
X0110840Y0144870D01*
X0110861Y0144909D01*
X0110885Y0144946D01*
X0110912Y0144981D01*
X0110942Y0145013D01*
X0110975Y0145043D01*
X0111011Y0145069D01*
X0111048Y0145093D01*
X0111088Y0145112D01*
X0111129Y0145129D01*
X0111172Y0145141D01*
X0111215Y0145150D01*
X0111259Y0145155D01*
X0111303Y0145156D01*
X0111347Y0145153D01*
X0111391Y0145146D01*
X0111434Y0145135D01*
X0111476Y0145121D01*
X0111516Y0145103D01*
X0111555Y0145081D01*
X0111591Y0145057D01*
X0111625Y0145029D01*
X0111657Y0144998D01*
X0111686Y0144964D01*
X0111712Y0144928D01*
X0111734Y0144890D01*
X0111753Y0144850D01*
X0111768Y0144808D01*
X0111780Y0144766D01*
X0111788Y0144722D01*
X0111792Y0144678D01*
X0111792Y0144634D01*
X0111788Y0144590D01*
X0111780Y0144546D01*
X0111768Y0144504D01*
X0111753Y0144462D01*
X0111734Y0144422D01*
X0111712Y0144384D01*
X0111686Y0144348D01*
X0111657Y0144314D01*
X0111625Y0144283D01*
X0111591Y0144255D01*
X0111555Y0144231D01*
X0111516Y0144209D01*
X0111476Y0144191D01*
X0111434Y0144177D01*
X0111391Y0144166D01*
X0111347Y0144159D01*
X0111303Y0144156D01*
X0111259Y0144157D01*
X0111215Y0144162D01*
X0111172Y0144171D01*
X0111129Y0144183D01*
X0111088Y0144200D01*
X0111048Y0144219D01*
X0111011Y0144243D01*
X0110975Y0144269D01*
X0110942Y0144299D01*
X0110912Y0144331D01*
X0110885Y0144366D01*
X0110861Y0144403D01*
X0110840Y0144442D01*
X0110823Y0144483D01*
X0110810Y0144525D01*
X0110800Y0144568D01*
X0110794Y0144612D01*
X0110792Y0144656D01*
X0139542Y0145909D02*
X0139542Y0142990D01*
X0140126Y0142406D01*
X0141294Y0142406D01*
X0141878Y0142990D01*
X0141878Y0145909D01*
X0143226Y0144157D02*
X0144977Y0145909D01*
X0144977Y0142406D01*
X0145561Y0144157D02*
X0143226Y0144157D01*
X0153637Y0143908D02*
X0154637Y0143908D01*
X0154971Y0143574D01*
X0154971Y0142907D01*
X0154637Y0142573D01*
X0153637Y0142573D01*
X0154304Y0142573D02*
X0154971Y0141906D01*
X0155939Y0142240D02*
X0156272Y0141906D01*
X0156939Y0141906D01*
X0157273Y0142240D01*
X0157273Y0142573D01*
X0156939Y0142907D01*
X0156272Y0142907D01*
X0155939Y0143240D01*
X0155939Y0143574D01*
X0156272Y0143908D01*
X0156939Y0143908D01*
X0157273Y0143574D01*
X0158240Y0143908D02*
X0159575Y0143908D01*
X0158908Y0143908D02*
X0158908Y0141906D01*
X0159626Y0144906D02*
X0160210Y0144906D01*
X0160794Y0145490D01*
X0160794Y0148409D01*
X0160210Y0148409D02*
X0161378Y0148409D01*
X0162726Y0146657D02*
X0164477Y0148409D01*
X0164477Y0144906D01*
X0165061Y0146657D02*
X0162726Y0146657D01*
X0159626Y0144906D02*
X0159042Y0145490D01*
X0157273Y0144656D02*
X0155939Y0146658D01*
X0155939Y0147406D02*
X0157273Y0149408D01*
X0155939Y0149408D02*
X0157273Y0147406D01*
X0157273Y0146658D02*
X0155939Y0144656D01*
X0154971Y0144656D02*
X0154304Y0145323D01*
X0154637Y0145323D02*
X0153637Y0145323D01*
X0153637Y0144656D02*
X0153637Y0146658D01*
X0154637Y0146658D01*
X0154971Y0146324D01*
X0154971Y0145657D01*
X0154637Y0145323D01*
X0153637Y0143908D02*
X0153637Y0141906D01*
X0154304Y0147406D02*
X0154304Y0149408D01*
X0153637Y0149408D02*
X0154971Y0149408D01*
X0167539Y0149673D02*
X0167539Y0150841D01*
X0168123Y0151424D01*
X0168707Y0151424D01*
X0169291Y0150841D01*
X0169291Y0149673D01*
X0168707Y0149089D01*
X0168123Y0149089D01*
X0167539Y0149673D01*
X0169291Y0149673D02*
X0169875Y0149089D01*
X0170459Y0149089D01*
X0171042Y0149673D01*
X0171042Y0150841D01*
X0170459Y0151424D01*
X0169875Y0151424D01*
X0169291Y0150841D01*
X0170459Y0147741D02*
X0171042Y0147157D01*
X0171042Y0145990D01*
X0170459Y0145406D01*
X0168123Y0145406D01*
X0167539Y0145990D01*
X0167539Y0147157D01*
X0168123Y0147741D01*
X0176853Y0148112D02*
X0176853Y0145777D01*
X0177437Y0145193D01*
X0178605Y0145193D01*
X0179189Y0145777D01*
X0179189Y0148112D01*
X0178605Y0148696D01*
X0177437Y0148696D01*
X0176853Y0148112D01*
X0178021Y0146361D02*
X0179189Y0145193D01*
X0180537Y0145193D02*
X0182872Y0145193D01*
X0181704Y0145193D02*
X0181704Y0148696D01*
X0180537Y0147529D01*
X0180147Y0151010D02*
X0181918Y0151010D01*
X0180147Y0151010D02*
X0180147Y0152782D01*
X0168061Y0161406D02*
X0165726Y0161406D01*
X0168061Y0163741D01*
X0168061Y0164325D01*
X0167477Y0164909D01*
X0166309Y0164909D01*
X0165726Y0164325D01*
X0164378Y0164325D02*
X0164378Y0163157D01*
X0163794Y0162574D01*
X0162042Y0162574D01*
X0162042Y0161406D02*
X0162042Y0164909D01*
X0163794Y0164909D01*
X0164378Y0164325D01*
X0163210Y0162574D02*
X0164378Y0161406D01*
X0180147Y0168530D02*
X0180147Y0170302D01*
X0181918Y0170302D01*
X0167542Y0173490D02*
X0167542Y0174657D01*
X0166959Y0175241D01*
X0166959Y0176589D02*
X0167542Y0177173D01*
X0167542Y0178341D01*
X0166959Y0178924D01*
X0166375Y0178924D01*
X0165791Y0178341D01*
X0165791Y0177757D01*
X0165791Y0178341D02*
X0165207Y0178924D01*
X0164623Y0178924D01*
X0164039Y0178341D01*
X0164039Y0177173D01*
X0164623Y0176589D01*
X0164623Y0175241D02*
X0164039Y0174657D01*
X0164039Y0173490D01*
X0164623Y0172906D01*
X0166959Y0172906D01*
X0167542Y0173490D01*
X0151061Y0173490D02*
X0150477Y0172906D01*
X0149309Y0172906D01*
X0148726Y0173490D01*
X0147378Y0173490D02*
X0147378Y0176409D01*
X0148726Y0175825D02*
X0149309Y0176409D01*
X0150477Y0176409D01*
X0151061Y0175825D01*
X0151061Y0175241D01*
X0150477Y0174657D01*
X0151061Y0174074D01*
X0151061Y0173490D01*
X0150477Y0174657D02*
X0149893Y0174657D01*
X0147378Y0173490D02*
X0146794Y0172906D01*
X0145626Y0172906D01*
X0145042Y0173490D01*
X0145042Y0176409D01*
X0136660Y0180906D02*
X0136660Y0184409D01*
X0134909Y0182657D01*
X0137244Y0182657D01*
X0133561Y0184409D02*
X0132393Y0184409D01*
X0132977Y0184409D02*
X0132977Y0181490D01*
X0132393Y0180906D01*
X0131809Y0180906D01*
X0131226Y0181490D01*
X0129878Y0181490D02*
X0129294Y0180906D01*
X0128126Y0180906D01*
X0127542Y0181490D01*
X0128126Y0182657D02*
X0129294Y0182657D01*
X0129878Y0182074D01*
X0129878Y0181490D01*
X0128126Y0182657D02*
X0127542Y0183241D01*
X0127542Y0183825D01*
X0128126Y0184409D01*
X0129294Y0184409D01*
X0129878Y0183825D01*
X0124261Y0184074D02*
X0123677Y0184657D01*
X0121926Y0184657D01*
X0121926Y0183490D01*
X0122509Y0182906D01*
X0123677Y0182906D01*
X0124261Y0183490D01*
X0124261Y0184074D01*
X0123093Y0185825D02*
X0121926Y0184657D01*
X0123093Y0185825D02*
X0124261Y0186409D01*
X0120578Y0185825D02*
X0119994Y0186409D01*
X0118826Y0186409D01*
X0118242Y0185825D01*
X0118242Y0183490D01*
X0118826Y0182906D01*
X0119994Y0182906D01*
X0120578Y0183490D01*
X0111761Y0185825D02*
X0109426Y0183490D01*
X0109426Y0182906D01*
X0108078Y0183490D02*
X0107494Y0182906D01*
X0106326Y0182906D01*
X0105742Y0183490D01*
X0105742Y0185825D01*
X0106326Y0186409D01*
X0107494Y0186409D01*
X0108078Y0185825D01*
X0109426Y0186409D02*
X0111761Y0186409D01*
X0111761Y0185825D01*
X0097042Y0188406D02*
X0097042Y0190675D01*
X0097042Y0189540D02*
X0093640Y0189540D01*
X0094774Y0188406D01*
X0094207Y0198406D02*
X0093640Y0198973D01*
X0093640Y0200107D01*
X0094207Y0200675D01*
X0094774Y0200675D01*
X0097042Y0198406D01*
X0097042Y0200675D01*
X0096475Y0208406D02*
X0097042Y0208973D01*
X0097042Y0210107D01*
X0096475Y0210675D01*
X0095908Y0210675D01*
X0095341Y0210107D01*
X0095341Y0209540D01*
X0095341Y0210107D02*
X0094774Y0210675D01*
X0094207Y0210675D01*
X0093640Y0210107D01*
X0093640Y0208973D01*
X0094207Y0208406D01*
X0091744Y0214406D02*
X0089409Y0214406D01*
X0090576Y0214406D02*
X0090576Y0217909D01*
X0089409Y0216741D01*
X0088061Y0216157D02*
X0087477Y0215574D01*
X0085726Y0215574D01*
X0085726Y0214406D02*
X0085726Y0217909D01*
X0087477Y0217909D01*
X0088061Y0217325D01*
X0088061Y0216157D01*
X0084378Y0217909D02*
X0083210Y0217909D01*
X0083794Y0217909D02*
X0083794Y0214990D01*
X0083210Y0214406D01*
X0082626Y0214406D01*
X0082042Y0214990D01*
X0101242Y0214990D02*
X0101826Y0214406D01*
X0102994Y0214406D01*
X0103578Y0214990D01*
X0104926Y0214990D02*
X0105509Y0214406D01*
X0106677Y0214406D01*
X0107261Y0214990D01*
X0107261Y0216157D01*
X0106677Y0216741D01*
X0106093Y0216741D01*
X0104926Y0216157D01*
X0104926Y0217909D01*
X0107261Y0217909D01*
X0103578Y0217325D02*
X0102994Y0217909D01*
X0101826Y0217909D01*
X0101242Y0217325D01*
X0101242Y0214990D01*
X0118519Y0214310D02*
X0118519Y0211391D01*
X0119103Y0210807D01*
X0120270Y0210807D01*
X0120854Y0211391D01*
X0120854Y0214310D01*
X0122202Y0213727D02*
X0122786Y0214310D01*
X0123953Y0214310D01*
X0124537Y0213727D01*
X0124537Y0213143D01*
X0122202Y0210807D01*
X0124537Y0210807D01*
X0131242Y0210409D02*
X0131242Y0206906D01*
X0133578Y0206906D01*
X0134926Y0206906D02*
X0137261Y0206906D01*
X0136093Y0206906D02*
X0136093Y0210409D01*
X0134926Y0209241D01*
X0142242Y0207909D02*
X0142242Y0204406D01*
X0142242Y0205574D02*
X0143994Y0205574D01*
X0144578Y0206157D01*
X0144578Y0207325D01*
X0143994Y0207909D01*
X0142242Y0207909D01*
X0143410Y0205574D02*
X0144578Y0204406D01*
X0145926Y0204990D02*
X0146509Y0204406D01*
X0147677Y0204406D01*
X0148261Y0204990D01*
X0148261Y0205574D01*
X0147677Y0206157D01*
X0147093Y0206157D01*
X0147677Y0206157D02*
X0148261Y0206741D01*
X0148261Y0207325D01*
X0147677Y0207909D01*
X0146509Y0207909D01*
X0145926Y0207325D01*
X0153042Y0207574D02*
X0154794Y0207574D01*
X0155378Y0208157D01*
X0155378Y0209325D01*
X0154794Y0209909D01*
X0153042Y0209909D01*
X0153042Y0206406D01*
X0154210Y0207574D02*
X0155378Y0206406D01*
X0156726Y0206990D02*
X0157309Y0206406D01*
X0158477Y0206406D01*
X0159061Y0206990D01*
X0159061Y0207574D01*
X0158477Y0208157D01*
X0156726Y0208157D01*
X0156726Y0206990D01*
X0156726Y0208157D02*
X0157893Y0209325D01*
X0159061Y0209909D01*
X0172042Y0210990D02*
X0172626Y0210406D01*
X0173210Y0210406D01*
X0173794Y0210990D01*
X0173794Y0213909D01*
X0173210Y0213909D02*
X0174378Y0213909D01*
X0175726Y0213909D02*
X0175726Y0210406D01*
X0175726Y0211574D02*
X0177477Y0211574D01*
X0178061Y0212157D01*
X0178061Y0213325D01*
X0177477Y0213909D01*
X0175726Y0213909D01*
X0179409Y0213325D02*
X0179993Y0213909D01*
X0181160Y0213909D01*
X0181744Y0213325D01*
X0181744Y0212741D01*
X0179409Y0210406D01*
X0181744Y0210406D01*
X0182610Y0196309D02*
X0182042Y0195742D01*
X0182610Y0196309D02*
X0183744Y0196309D01*
X0184311Y0195742D01*
X0184311Y0195175D01*
X0182042Y0192906D01*
X0184311Y0192906D01*
X0192042Y0193473D02*
X0192610Y0192906D01*
X0193744Y0192906D01*
X0194311Y0193473D01*
X0194311Y0194040D01*
X0193744Y0194607D01*
X0193177Y0194607D01*
X0193744Y0194607D02*
X0194311Y0195175D01*
X0194311Y0195742D01*
X0193744Y0196309D01*
X0192610Y0196309D01*
X0192042Y0195742D01*
X0194039Y0186058D02*
X0194623Y0186058D01*
X0196959Y0183723D01*
X0197542Y0183723D01*
X0197542Y0182375D02*
X0196375Y0181207D01*
X0196375Y0181791D02*
X0196375Y0180040D01*
X0197542Y0180040D02*
X0194039Y0180040D01*
X0194039Y0181791D01*
X0194623Y0182375D01*
X0195791Y0182375D01*
X0196375Y0181791D01*
X0194039Y0183723D02*
X0194039Y0186058D01*
X0205539Y0174341D02*
X0205539Y0173173D01*
X0206123Y0172589D01*
X0206123Y0171241D02*
X0205539Y0170657D01*
X0205539Y0169490D01*
X0206123Y0168906D01*
X0208459Y0168906D01*
X0209042Y0169490D01*
X0209042Y0170657D01*
X0208459Y0171241D01*
X0209042Y0172589D02*
X0206707Y0174924D01*
X0206123Y0174924D01*
X0205539Y0174341D01*
X0209042Y0174924D02*
X0209042Y0172589D01*
X0211039Y0174341D02*
X0212791Y0172589D01*
X0212791Y0174924D01*
X0214542Y0174341D02*
X0211039Y0174341D01*
X0211623Y0171241D02*
X0211039Y0170657D01*
X0211039Y0169490D01*
X0211623Y0168906D01*
X0213959Y0168906D01*
X0214542Y0169490D01*
X0214542Y0170657D01*
X0213959Y0171241D01*
X0226039Y0178940D02*
X0226623Y0178356D01*
X0227207Y0178356D01*
X0227791Y0178940D01*
X0227791Y0180108D01*
X0228375Y0180692D01*
X0228959Y0180692D01*
X0229542Y0180108D01*
X0229542Y0178940D01*
X0228959Y0178356D01*
X0226039Y0178940D02*
X0226039Y0180108D01*
X0226623Y0180692D01*
X0226039Y0183207D02*
X0226039Y0184375D01*
X0226039Y0183791D02*
X0228959Y0183791D01*
X0229542Y0183207D01*
X0229542Y0182623D01*
X0228959Y0182040D01*
X0228959Y0185723D02*
X0229542Y0186307D01*
X0229542Y0187474D01*
X0228959Y0188058D01*
X0228375Y0188058D01*
X0227791Y0187474D01*
X0227791Y0186890D01*
X0227791Y0187474D02*
X0227207Y0188058D01*
X0226623Y0188058D01*
X0226039Y0187474D01*
X0226039Y0186307D01*
X0226623Y0185723D01*
X0214042Y0189906D02*
X0210539Y0189906D01*
X0210539Y0191657D01*
X0211123Y0192241D01*
X0212291Y0192241D01*
X0212875Y0191657D01*
X0212875Y0189906D01*
X0212875Y0191074D02*
X0214042Y0192241D01*
X0214042Y0193589D02*
X0214042Y0195924D01*
X0214042Y0194757D02*
X0210539Y0194757D01*
X0211707Y0193589D01*
X0211123Y0197272D02*
X0210539Y0197856D01*
X0210539Y0199024D01*
X0211123Y0199608D01*
X0211707Y0199608D01*
X0214042Y0197272D01*
X0214042Y0199608D01*
X0214809Y0206906D02*
X0214226Y0207490D01*
X0214226Y0208074D01*
X0214809Y0208657D01*
X0215977Y0208657D01*
X0216561Y0208074D01*
X0216561Y0207490D01*
X0215977Y0206906D01*
X0214809Y0206906D01*
X0214809Y0208657D02*
X0214226Y0209241D01*
X0214226Y0209825D01*
X0214809Y0210409D01*
X0215977Y0210409D01*
X0216561Y0209825D01*
X0216561Y0209241D01*
X0215977Y0208657D01*
X0212878Y0208657D02*
X0212878Y0209825D01*
X0212294Y0210409D01*
X0210542Y0210409D01*
X0210542Y0206906D01*
X0210542Y0208074D02*
X0212294Y0208074D01*
X0212878Y0208657D01*
X0211710Y0208074D02*
X0212878Y0206906D01*
X0223542Y0213990D02*
X0224126Y0213406D01*
X0224710Y0213406D01*
X0225294Y0213990D01*
X0225294Y0216909D01*
X0224710Y0216909D02*
X0225878Y0216909D01*
X0227226Y0216325D02*
X0227809Y0216909D01*
X0228977Y0216909D01*
X0229561Y0216325D01*
X0229561Y0215741D01*
X0227226Y0213406D01*
X0229561Y0213406D01*
X0243039Y0223990D02*
X0243623Y0223406D01*
X0245959Y0223406D01*
X0246542Y0223990D01*
X0246542Y0225157D01*
X0245959Y0225741D01*
X0244791Y0225741D01*
X0244791Y0224574D01*
X0243623Y0225741D02*
X0243039Y0225157D01*
X0243039Y0223990D01*
X0243039Y0227089D02*
X0243039Y0228841D01*
X0243623Y0229424D01*
X0244791Y0229424D01*
X0245375Y0228841D01*
X0245375Y0227089D01*
X0246542Y0227089D02*
X0243039Y0227089D01*
X0243039Y0230772D02*
X0243039Y0231940D01*
X0243039Y0231356D02*
X0246542Y0231356D01*
X0246542Y0230772D02*
X0246542Y0231940D01*
X0245959Y0233228D02*
X0246542Y0233811D01*
X0246542Y0234979D01*
X0245959Y0235563D01*
X0243623Y0235563D01*
X0243039Y0234979D01*
X0243039Y0233811D01*
X0243623Y0233228D01*
X0245959Y0233228D01*
X0245375Y0236911D02*
X0244207Y0236911D01*
X0243039Y0238078D01*
X0244207Y0239366D02*
X0244207Y0241118D01*
X0244207Y0241702D01*
X0245375Y0241702D02*
X0245375Y0239366D01*
X0246542Y0239950D02*
X0243039Y0239950D01*
X0243039Y0241118D02*
X0246542Y0241118D01*
X0246542Y0243049D02*
X0245375Y0244217D01*
X0244207Y0244217D01*
X0243039Y0243049D01*
X0246542Y0238078D02*
X0245375Y0236911D01*
X0173177Y0196309D02*
X0173177Y0192906D01*
X0174311Y0192906D02*
X0172042Y0192906D01*
X0172042Y0195175D02*
X0173177Y0196309D01*
X0197666Y0170302D02*
X0199438Y0170302D01*
X0199438Y0168530D01*
X0199438Y0152782D02*
X0199438Y0151010D01*
X0197666Y0151010D01*
X0197354Y0149098D02*
X0197354Y0146179D01*
X0196770Y0145595D01*
X0195603Y0145595D01*
X0195019Y0146179D01*
X0195019Y0149098D01*
X0198702Y0147930D02*
X0199869Y0149098D01*
X0199869Y0145595D01*
X0198702Y0145595D02*
X0201037Y0145595D01*
X0211539Y0145123D02*
X0212123Y0144540D01*
X0214459Y0144540D01*
X0215042Y0145123D01*
X0215042Y0146291D01*
X0214459Y0146875D01*
X0215042Y0148223D02*
X0215042Y0150558D01*
X0215042Y0149390D02*
X0211539Y0149390D01*
X0212707Y0148223D01*
X0212123Y0146875D02*
X0211539Y0146291D01*
X0211539Y0145123D01*
X0191721Y0114156D02*
X0191723Y0114330D01*
X0191730Y0114503D01*
X0191740Y0114676D01*
X0191755Y0114849D01*
X0191774Y0115022D01*
X0191798Y0115194D01*
X0191825Y0115365D01*
X0191857Y0115535D01*
X0191893Y0115705D01*
X0191933Y0115874D01*
X0191977Y0116042D01*
X0192025Y0116209D01*
X0192078Y0116374D01*
X0192134Y0116538D01*
X0192195Y0116701D01*
X0192259Y0116862D01*
X0192328Y0117021D01*
X0192400Y0117179D01*
X0192476Y0117335D01*
X0192556Y0117489D01*
X0192640Y0117641D01*
X0192727Y0117791D01*
X0192818Y0117939D01*
X0192913Y0118084D01*
X0193011Y0118228D01*
X0193113Y0118368D01*
X0193218Y0118506D01*
X0193326Y0118642D01*
X0193438Y0118775D01*
X0193553Y0118905D01*
X0193671Y0119032D01*
X0193792Y0119156D01*
X0193916Y0119277D01*
X0194043Y0119395D01*
X0194173Y0119510D01*
X0194306Y0119622D01*
X0194442Y0119730D01*
X0194580Y0119835D01*
X0194720Y0119937D01*
X0194864Y0120035D01*
X0195009Y0120130D01*
X0195157Y0120221D01*
X0195307Y0120308D01*
X0195459Y0120392D01*
X0195613Y0120472D01*
X0195769Y0120548D01*
X0195927Y0120620D01*
X0196086Y0120689D01*
X0196247Y0120753D01*
X0196410Y0120814D01*
X0196574Y0120870D01*
X0196739Y0120923D01*
X0196906Y0120971D01*
X0197074Y0121015D01*
X0197243Y0121055D01*
X0197413Y0121091D01*
X0197583Y0121123D01*
X0197754Y0121150D01*
X0197926Y0121174D01*
X0198099Y0121193D01*
X0198272Y0121208D01*
X0198445Y0121218D01*
X0198618Y0121225D01*
X0198792Y0121227D01*
X0198966Y0121225D01*
X0199139Y0121218D01*
X0199312Y0121208D01*
X0199485Y0121193D01*
X0199658Y0121174D01*
X0199830Y0121150D01*
X0200001Y0121123D01*
X0200171Y0121091D01*
X0200341Y0121055D01*
X0200510Y0121015D01*
X0200678Y0120971D01*
X0200845Y0120923D01*
X0201010Y0120870D01*
X0201174Y0120814D01*
X0201337Y0120753D01*
X0201498Y0120689D01*
X0201657Y0120620D01*
X0201815Y0120548D01*
X0201971Y0120472D01*
X0202125Y0120392D01*
X0202277Y0120308D01*
X0202427Y0120221D01*
X0202575Y0120130D01*
X0202720Y0120035D01*
X0202864Y0119937D01*
X0203004Y0119835D01*
X0203142Y0119730D01*
X0203278Y0119622D01*
X0203411Y0119510D01*
X0203541Y0119395D01*
X0203668Y0119277D01*
X0203792Y0119156D01*
X0203913Y0119032D01*
X0204031Y0118905D01*
X0204146Y0118775D01*
X0204258Y0118642D01*
X0204366Y0118506D01*
X0204471Y0118368D01*
X0204573Y0118228D01*
X0204671Y0118084D01*
X0204766Y0117939D01*
X0204857Y0117791D01*
X0204944Y0117641D01*
X0205028Y0117489D01*
X0205108Y0117335D01*
X0205184Y0117179D01*
X0205256Y0117021D01*
X0205325Y0116862D01*
X0205389Y0116701D01*
X0205450Y0116538D01*
X0205506Y0116374D01*
X0205559Y0116209D01*
X0205607Y0116042D01*
X0205651Y0115874D01*
X0205691Y0115705D01*
X0205727Y0115535D01*
X0205759Y0115365D01*
X0205786Y0115194D01*
X0205810Y0115022D01*
X0205829Y0114849D01*
X0205844Y0114676D01*
X0205854Y0114503D01*
X0205861Y0114330D01*
X0205863Y0114156D01*
X0205861Y0113982D01*
X0205854Y0113809D01*
X0205844Y0113636D01*
X0205829Y0113463D01*
X0205810Y0113290D01*
X0205786Y0113118D01*
X0205759Y0112947D01*
X0205727Y0112777D01*
X0205691Y0112607D01*
X0205651Y0112438D01*
X0205607Y0112270D01*
X0205559Y0112103D01*
X0205506Y0111938D01*
X0205450Y0111774D01*
X0205389Y0111611D01*
X0205325Y0111450D01*
X0205256Y0111291D01*
X0205184Y0111133D01*
X0205108Y0110977D01*
X0205028Y0110823D01*
X0204944Y0110671D01*
X0204857Y0110521D01*
X0204766Y0110373D01*
X0204671Y0110228D01*
X0204573Y0110084D01*
X0204471Y0109944D01*
X0204366Y0109806D01*
X0204258Y0109670D01*
X0204146Y0109537D01*
X0204031Y0109407D01*
X0203913Y0109280D01*
X0203792Y0109156D01*
X0203668Y0109035D01*
X0203541Y0108917D01*
X0203411Y0108802D01*
X0203278Y0108690D01*
X0203142Y0108582D01*
X0203004Y0108477D01*
X0202864Y0108375D01*
X0202720Y0108277D01*
X0202575Y0108182D01*
X0202427Y0108091D01*
X0202277Y0108004D01*
X0202125Y0107920D01*
X0201971Y0107840D01*
X0201815Y0107764D01*
X0201657Y0107692D01*
X0201498Y0107623D01*
X0201337Y0107559D01*
X0201174Y0107498D01*
X0201010Y0107442D01*
X0200845Y0107389D01*
X0200678Y0107341D01*
X0200510Y0107297D01*
X0200341Y0107257D01*
X0200171Y0107221D01*
X0200001Y0107189D01*
X0199830Y0107162D01*
X0199658Y0107138D01*
X0199485Y0107119D01*
X0199312Y0107104D01*
X0199139Y0107094D01*
X0198966Y0107087D01*
X0198792Y0107085D01*
X0198618Y0107087D01*
X0198445Y0107094D01*
X0198272Y0107104D01*
X0198099Y0107119D01*
X0197926Y0107138D01*
X0197754Y0107162D01*
X0197583Y0107189D01*
X0197413Y0107221D01*
X0197243Y0107257D01*
X0197074Y0107297D01*
X0196906Y0107341D01*
X0196739Y0107389D01*
X0196574Y0107442D01*
X0196410Y0107498D01*
X0196247Y0107559D01*
X0196086Y0107623D01*
X0195927Y0107692D01*
X0195769Y0107764D01*
X0195613Y0107840D01*
X0195459Y0107920D01*
X0195307Y0108004D01*
X0195157Y0108091D01*
X0195009Y0108182D01*
X0194864Y0108277D01*
X0194720Y0108375D01*
X0194580Y0108477D01*
X0194442Y0108582D01*
X0194306Y0108690D01*
X0194173Y0108802D01*
X0194043Y0108917D01*
X0193916Y0109035D01*
X0193792Y0109156D01*
X0193671Y0109280D01*
X0193553Y0109407D01*
X0193438Y0109537D01*
X0193326Y0109670D01*
X0193218Y0109806D01*
X0193113Y0109944D01*
X0193011Y0110084D01*
X0192913Y0110228D01*
X0192818Y0110373D01*
X0192727Y0110521D01*
X0192640Y0110671D01*
X0192556Y0110823D01*
X0192476Y0110977D01*
X0192400Y0111133D01*
X0192328Y0111291D01*
X0192259Y0111450D01*
X0192195Y0111611D01*
X0192134Y0111774D01*
X0192078Y0111938D01*
X0192025Y0112103D01*
X0191977Y0112270D01*
X0191933Y0112438D01*
X0191893Y0112607D01*
X0191857Y0112777D01*
X0191825Y0112947D01*
X0191798Y0113118D01*
X0191774Y0113290D01*
X0191755Y0113463D01*
X0191740Y0113636D01*
X0191730Y0113809D01*
X0191723Y0113982D01*
X0191721Y0114156D01*
X0087378Y0173990D02*
X0087378Y0176325D01*
X0086794Y0176909D01*
X0085042Y0176909D01*
X0085042Y0173406D01*
X0086794Y0173406D01*
X0087378Y0173990D01*
X0087125Y0228406D02*
X0087792Y0229073D01*
X0087125Y0229740D01*
X0085791Y0229740D01*
X0085791Y0230708D02*
X0085791Y0231375D01*
X0085791Y0231041D02*
X0087792Y0231041D01*
X0087792Y0230708D02*
X0087792Y0231375D01*
X0087792Y0232242D02*
X0085791Y0232242D01*
X0087792Y0233577D01*
X0085791Y0233577D01*
X0085791Y0228406D02*
X0087125Y0228406D01*
X0095791Y0228740D02*
X0096124Y0228406D01*
X0097459Y0228406D01*
X0097792Y0228740D01*
X0097792Y0229407D01*
X0097459Y0229740D01*
X0096792Y0229740D01*
X0096792Y0229073D01*
X0096124Y0229740D02*
X0095791Y0229407D01*
X0095791Y0228740D01*
X0095791Y0230708D02*
X0097792Y0232042D01*
X0095791Y0232042D01*
X0095791Y0233010D02*
X0095791Y0234011D01*
X0096124Y0234344D01*
X0097459Y0234344D01*
X0097792Y0234011D01*
X0097792Y0233010D01*
X0095791Y0233010D01*
X0095791Y0230708D02*
X0097792Y0230708D01*
X0105791Y0230708D02*
X0107125Y0230708D01*
X0107792Y0231375D01*
X0107125Y0232042D01*
X0105791Y0232042D01*
X0106124Y0233010D02*
X0105791Y0233343D01*
X0105791Y0234011D01*
X0106124Y0234344D01*
X0106458Y0234344D01*
X0106792Y0234011D01*
X0107125Y0234344D01*
X0107459Y0234344D01*
X0107792Y0234011D01*
X0107792Y0233343D01*
X0107459Y0233010D01*
X0106792Y0233677D02*
X0106792Y0234011D01*
X0107125Y0229740D02*
X0106792Y0229407D01*
X0106792Y0229073D01*
X0106792Y0229407D02*
X0106458Y0229740D01*
X0106124Y0229740D01*
X0105791Y0229407D01*
X0105791Y0228740D01*
X0106124Y0228406D01*
X0107459Y0228406D02*
X0107792Y0228740D01*
X0107792Y0229407D01*
X0107459Y0229740D01*
X0107125Y0229740D01*
X0115791Y0229407D02*
X0115791Y0228740D01*
X0116124Y0228406D01*
X0116792Y0229073D02*
X0116792Y0229407D01*
X0117125Y0229740D01*
X0117459Y0229740D01*
X0117792Y0229407D01*
X0117792Y0228740D01*
X0117459Y0228406D01*
X0116792Y0229407D02*
X0116458Y0229740D01*
X0116124Y0229740D01*
X0115791Y0229407D01*
X0115791Y0230708D02*
X0117125Y0230708D01*
X0117792Y0231375D01*
X0117125Y0232042D01*
X0115791Y0232042D01*
X0116124Y0233010D02*
X0115791Y0233343D01*
X0115791Y0234011D01*
X0116124Y0234344D01*
X0116458Y0234344D01*
X0116792Y0234011D01*
X0117125Y0234344D01*
X0117459Y0234344D01*
X0117792Y0234011D01*
X0117792Y0233343D01*
X0117459Y0233010D01*
X0116792Y0233677D02*
X0116792Y0234011D01*
X0125791Y0234011D02*
X0125791Y0233010D01*
X0127792Y0233010D01*
X0127792Y0234011D01*
X0127459Y0234344D01*
X0126124Y0234344D01*
X0125791Y0234011D01*
X0125791Y0232042D02*
X0127792Y0232042D01*
X0125791Y0230708D01*
X0127792Y0230708D01*
X0127459Y0229740D02*
X0126792Y0229740D01*
X0126792Y0229073D01*
X0127459Y0228406D02*
X0127792Y0228740D01*
X0127792Y0229407D01*
X0127459Y0229740D01*
X0127459Y0228406D02*
X0126124Y0228406D01*
X0125791Y0228740D01*
X0125791Y0229407D01*
X0126124Y0229740D01*
X0135791Y0229407D02*
X0135791Y0228740D01*
X0136124Y0228406D01*
X0137459Y0228406D01*
X0137792Y0228740D01*
X0137792Y0229407D01*
X0137459Y0229740D01*
X0136792Y0229740D01*
X0136792Y0229073D01*
X0136124Y0229740D02*
X0135791Y0229407D01*
X0135791Y0230708D02*
X0137792Y0232042D01*
X0135791Y0232042D01*
X0135791Y0233010D02*
X0135791Y0234011D01*
X0136124Y0234344D01*
X0137459Y0234344D01*
X0137792Y0234011D01*
X0137792Y0233010D01*
X0135791Y0233010D01*
X0135791Y0230708D02*
X0137792Y0230708D01*
X0145791Y0231041D02*
X0146124Y0230708D01*
X0147459Y0230708D01*
X0147792Y0231041D01*
X0147792Y0231709D01*
X0147459Y0232042D01*
X0146124Y0232042D01*
X0145791Y0231709D01*
X0145791Y0231041D01*
X0145791Y0229740D02*
X0145791Y0228406D01*
X0145791Y0229073D02*
X0147792Y0229073D01*
X0147459Y0233010D02*
X0147792Y0233343D01*
X0147792Y0234011D01*
X0147459Y0234344D01*
X0145791Y0234344D01*
X0145791Y0235312D02*
X0145791Y0236646D01*
X0145791Y0235979D02*
X0147792Y0235979D01*
X0147459Y0233010D02*
X0145791Y0233010D01*
X0084042Y0240990D02*
X0083459Y0240406D01*
X0084042Y0240990D02*
X0084042Y0241574D01*
X0083459Y0242157D01*
X0080539Y0242157D01*
X0080539Y0241574D02*
X0080539Y0242741D01*
X0081123Y0244089D02*
X0080539Y0244673D01*
X0080539Y0245841D01*
X0081123Y0246424D01*
X0081707Y0246424D01*
X0082291Y0245841D01*
X0082875Y0246424D01*
X0083459Y0246424D01*
X0084042Y0245841D01*
X0084042Y0244673D01*
X0083459Y0244089D01*
X0082291Y0245257D02*
X0082291Y0245841D01*
D12*
X0154639Y0230658D02*
X0156791Y0228506D01*
X0156791Y0231375D01*
X0158942Y0230658D02*
X0154639Y0230658D01*
X0164639Y0230658D02*
X0164639Y0229223D01*
X0165356Y0228506D01*
X0168225Y0228506D01*
X0165356Y0231375D01*
X0168225Y0231375D01*
X0168942Y0230658D01*
X0168942Y0229223D01*
X0168225Y0228506D01*
X0165356Y0231375D02*
X0164639Y0230658D01*
X0174639Y0230658D02*
X0174639Y0229223D01*
X0175356Y0228506D01*
X0174639Y0230658D02*
X0175356Y0231375D01*
X0176073Y0231375D01*
X0178942Y0228506D01*
X0178942Y0231375D01*
X0184639Y0229940D02*
X0186073Y0228506D01*
X0184639Y0229940D02*
X0188942Y0229940D01*
X0188942Y0228506D02*
X0188942Y0231375D01*
X0188225Y0233110D02*
X0188942Y0233827D01*
X0188942Y0235262D01*
X0188225Y0235979D01*
X0186791Y0235979D01*
X0186073Y0235262D01*
X0186073Y0234544D01*
X0186791Y0233110D01*
X0184639Y0233110D01*
X0184639Y0235979D01*
X0194639Y0235262D02*
X0194639Y0233827D01*
X0195356Y0233110D01*
X0196791Y0234544D02*
X0196791Y0235262D01*
X0197508Y0235979D01*
X0198225Y0235979D01*
X0198942Y0235262D01*
X0198942Y0233827D01*
X0198225Y0233110D01*
X0198942Y0231375D02*
X0198942Y0228506D01*
X0198942Y0229940D02*
X0194639Y0229940D01*
X0196073Y0228506D01*
X0204639Y0229940D02*
X0206073Y0228506D01*
X0204639Y0229940D02*
X0208942Y0229940D01*
X0208942Y0228506D02*
X0208942Y0231375D01*
X0208942Y0233110D02*
X0206073Y0235979D01*
X0205356Y0235979D01*
X0204639Y0235262D01*
X0204639Y0233827D01*
X0205356Y0233110D01*
X0208942Y0233110D02*
X0208942Y0235979D01*
X0214639Y0235262D02*
X0216791Y0233110D01*
X0216791Y0235979D01*
X0218942Y0235262D02*
X0214639Y0235262D01*
X0214639Y0229940D02*
X0218942Y0229940D01*
X0218942Y0228506D02*
X0218942Y0231375D01*
X0216073Y0228506D02*
X0214639Y0229940D01*
X0224639Y0229940D02*
X0226073Y0228506D01*
X0224639Y0229940D02*
X0228942Y0229940D01*
X0228942Y0228506D02*
X0228942Y0231375D01*
X0228225Y0233110D02*
X0228942Y0233827D01*
X0228942Y0235262D01*
X0228225Y0235979D01*
X0227508Y0235979D01*
X0226791Y0235262D01*
X0226791Y0233110D01*
X0228225Y0233110D01*
X0226791Y0233110D02*
X0225356Y0234544D01*
X0224639Y0235979D01*
X0234639Y0235979D02*
X0234639Y0233110D01*
X0238942Y0233110D01*
X0238942Y0235979D01*
X0236791Y0234544D02*
X0236791Y0233110D01*
X0238225Y0231375D02*
X0238942Y0230658D01*
X0238942Y0229223D01*
X0238225Y0228506D01*
X0235356Y0228506D01*
X0234639Y0229223D01*
X0234639Y0230658D01*
X0235356Y0231375D01*
X0196791Y0235262D02*
X0196073Y0235979D01*
X0195356Y0235979D01*
X0194639Y0235262D01*
D13*
X0195792Y0208156D02*
X0187792Y0208156D01*
X0186792Y0207156D01*
X0185792Y0208156D01*
X0177792Y0208156D01*
X0176792Y0207156D01*
X0175792Y0208156D01*
X0167792Y0208156D01*
X0166792Y0207156D01*
X0166792Y0199156D01*
X0167792Y0198156D01*
X0175792Y0198156D01*
X0176792Y0199156D01*
X0177792Y0198156D01*
X0185792Y0198156D01*
X0186792Y0199156D01*
X0187792Y0198156D01*
X0195792Y0198156D01*
X0196792Y0199156D01*
X0196792Y0207156D01*
X0195792Y0208156D01*
X0215292Y0188656D02*
X0215292Y0177656D01*
X0215294Y0177596D01*
X0215299Y0177535D01*
X0215308Y0177476D01*
X0215321Y0177417D01*
X0215337Y0177358D01*
X0215357Y0177301D01*
X0215380Y0177246D01*
X0215407Y0177191D01*
X0215436Y0177139D01*
X0215469Y0177088D01*
X0215505Y0177039D01*
X0215543Y0176993D01*
X0215585Y0176949D01*
X0215629Y0176907D01*
X0215675Y0176869D01*
X0215724Y0176833D01*
X0215775Y0176800D01*
X0215827Y0176771D01*
X0215882Y0176744D01*
X0215937Y0176721D01*
X0215994Y0176701D01*
X0216053Y0176685D01*
X0216112Y0176672D01*
X0216171Y0176663D01*
X0216232Y0176658D01*
X0216292Y0176656D01*
X0222292Y0176656D01*
X0222352Y0176658D01*
X0222413Y0176663D01*
X0222472Y0176672D01*
X0222531Y0176685D01*
X0222590Y0176701D01*
X0222647Y0176721D01*
X0222702Y0176744D01*
X0222757Y0176771D01*
X0222809Y0176800D01*
X0222860Y0176833D01*
X0222909Y0176869D01*
X0222955Y0176907D01*
X0222999Y0176949D01*
X0223041Y0176993D01*
X0223079Y0177039D01*
X0223115Y0177088D01*
X0223148Y0177139D01*
X0223177Y0177191D01*
X0223204Y0177246D01*
X0223227Y0177301D01*
X0223247Y0177358D01*
X0223263Y0177417D01*
X0223276Y0177476D01*
X0223285Y0177535D01*
X0223290Y0177596D01*
X0223292Y0177656D01*
X0223292Y0188656D01*
X0223290Y0188716D01*
X0223285Y0188777D01*
X0223276Y0188836D01*
X0223263Y0188895D01*
X0223247Y0188954D01*
X0223227Y0189011D01*
X0223204Y0189066D01*
X0223177Y0189121D01*
X0223148Y0189173D01*
X0223115Y0189224D01*
X0223079Y0189273D01*
X0223041Y0189319D01*
X0222999Y0189363D01*
X0222955Y0189405D01*
X0222909Y0189443D01*
X0222860Y0189479D01*
X0222809Y0189512D01*
X0222757Y0189541D01*
X0222702Y0189568D01*
X0222647Y0189591D01*
X0222590Y0189611D01*
X0222531Y0189627D01*
X0222472Y0189640D01*
X0222413Y0189649D01*
X0222352Y0189654D01*
X0222292Y0189656D01*
X0216292Y0189656D01*
X0216232Y0189654D01*
X0216171Y0189649D01*
X0216112Y0189640D01*
X0216053Y0189627D01*
X0215994Y0189611D01*
X0215937Y0189591D01*
X0215882Y0189568D01*
X0215827Y0189541D01*
X0215775Y0189512D01*
X0215724Y0189479D01*
X0215675Y0189443D01*
X0215629Y0189405D01*
X0215585Y0189363D01*
X0215543Y0189319D01*
X0215505Y0189273D01*
X0215469Y0189224D01*
X0215436Y0189173D01*
X0215407Y0189121D01*
X0215380Y0189066D01*
X0215357Y0189011D01*
X0215337Y0188954D01*
X0215321Y0188895D01*
X0215308Y0188836D01*
X0215299Y0188777D01*
X0215294Y0188716D01*
X0215292Y0188656D01*
X0147092Y0193256D02*
X0141492Y0193256D01*
X0141492Y0196256D01*
X0141492Y0202056D01*
X0147092Y0202056D01*
X0147092Y0199056D01*
X0147092Y0196256D01*
X0147092Y0193256D01*
X0147092Y0196256D02*
X0141492Y0196256D01*
X0141492Y0199056D02*
X0141392Y0202056D01*
X0141492Y0202056D01*
X0141492Y0199056D02*
X0147092Y0199056D01*
X0139092Y0204756D02*
X0126492Y0204756D01*
X0126492Y0190556D01*
X0139092Y0190556D01*
X0139092Y0204756D01*
X0135492Y0204756D01*
X0139092Y0204756D02*
X0139092Y0190556D01*
X0135492Y0190556D01*
X0130092Y0190556D02*
X0126492Y0190556D01*
X0126492Y0204756D01*
X0130092Y0204756D01*
X0122692Y0208056D02*
X0122692Y0209056D01*
X0121692Y0209056D01*
X0111892Y0209056D02*
X0110892Y0209056D01*
X0110892Y0208056D01*
X0108192Y0207356D02*
X0108192Y0212956D01*
X0105192Y0212956D01*
X0102392Y0212956D01*
X0099392Y0212956D01*
X0099392Y0207356D01*
X0105192Y0207356D01*
X0108192Y0207356D01*
X0105192Y0207356D02*
X0105192Y0212956D01*
X0102392Y0212956D02*
X0102392Y0207356D01*
X0099392Y0207256D01*
X0099392Y0207356D01*
X0100192Y0202356D02*
X0107392Y0202356D01*
X0107392Y0199356D01*
X0107392Y0191956D01*
X0107392Y0188956D01*
X0100292Y0188956D01*
X0100192Y0188956D01*
X0100192Y0199356D01*
X0100192Y0202356D01*
X0100192Y0199356D02*
X0107392Y0199356D01*
X0107392Y0198056D02*
X0107392Y0193256D01*
X0107392Y0191956D02*
X0100192Y0191956D01*
X0100292Y0188956D01*
X0100192Y0193256D02*
X0100192Y0198056D01*
X0091792Y0194156D02*
X0091792Y0202156D01*
X0090792Y0203156D01*
X0091792Y0204156D01*
X0091792Y0212156D01*
X0090792Y0213156D01*
X0082792Y0213156D01*
X0081792Y0212156D01*
X0081792Y0204156D01*
X0082792Y0203156D01*
X0081792Y0202156D01*
X0081792Y0194156D01*
X0082792Y0193156D01*
X0081792Y0192156D01*
X0081792Y0184156D01*
X0082792Y0183156D01*
X0090792Y0183156D01*
X0091792Y0184156D01*
X0091792Y0192156D01*
X0090792Y0193156D01*
X0091792Y0194156D01*
X0110892Y0197256D02*
X0111892Y0197256D01*
X0110892Y0197256D02*
X0110892Y0198256D01*
X0115892Y0192956D02*
X0115892Y0187356D01*
X0121692Y0187356D01*
X0124692Y0187356D01*
X0124692Y0192956D01*
X0121692Y0192956D01*
X0118892Y0192956D01*
X0115892Y0192956D01*
X0118892Y0192956D02*
X0118892Y0187356D01*
X0115892Y0187256D01*
X0115892Y0187356D01*
X0121692Y0187356D02*
X0121692Y0192956D01*
X0121692Y0197256D02*
X0122692Y0197256D01*
X0122692Y0198256D01*
X0124392Y0200156D02*
X0124394Y0200122D01*
X0124400Y0200089D01*
X0124409Y0200057D01*
X0124422Y0200026D01*
X0124438Y0199996D01*
X0124457Y0199969D01*
X0124480Y0199944D01*
X0124505Y0199921D01*
X0124532Y0199902D01*
X0124562Y0199886D01*
X0124593Y0199873D01*
X0124625Y0199864D01*
X0124658Y0199858D01*
X0124692Y0199856D01*
X0124726Y0199858D01*
X0124759Y0199864D01*
X0124791Y0199873D01*
X0124822Y0199886D01*
X0124852Y0199902D01*
X0124879Y0199921D01*
X0124904Y0199944D01*
X0124927Y0199969D01*
X0124946Y0199996D01*
X0124962Y0200026D01*
X0124975Y0200057D01*
X0124984Y0200089D01*
X0124990Y0200122D01*
X0124992Y0200156D01*
X0124990Y0200190D01*
X0124984Y0200223D01*
X0124975Y0200255D01*
X0124962Y0200286D01*
X0124946Y0200316D01*
X0124927Y0200343D01*
X0124904Y0200368D01*
X0124879Y0200391D01*
X0124852Y0200410D01*
X0124822Y0200426D01*
X0124791Y0200439D01*
X0124759Y0200448D01*
X0124726Y0200454D01*
X0124692Y0200456D01*
X0124658Y0200454D01*
X0124625Y0200448D01*
X0124593Y0200439D01*
X0124562Y0200426D01*
X0124532Y0200410D01*
X0124505Y0200391D01*
X0124480Y0200368D01*
X0124457Y0200343D01*
X0124438Y0200316D01*
X0124422Y0200286D01*
X0124409Y0200255D01*
X0124400Y0200223D01*
X0124394Y0200190D01*
X0124392Y0200156D01*
X0132792Y0209456D02*
X0132826Y0209458D01*
X0132859Y0209464D01*
X0132891Y0209473D01*
X0132922Y0209486D01*
X0132952Y0209502D01*
X0132979Y0209521D01*
X0133004Y0209544D01*
X0133027Y0209569D01*
X0133046Y0209596D01*
X0133062Y0209626D01*
X0133075Y0209657D01*
X0133084Y0209689D01*
X0133090Y0209722D01*
X0133092Y0209756D01*
X0133090Y0209790D01*
X0133084Y0209823D01*
X0133075Y0209855D01*
X0133062Y0209886D01*
X0133046Y0209916D01*
X0133027Y0209943D01*
X0133004Y0209968D01*
X0132979Y0209991D01*
X0132952Y0210010D01*
X0132922Y0210026D01*
X0132891Y0210039D01*
X0132859Y0210048D01*
X0132826Y0210054D01*
X0132792Y0210056D01*
X0132758Y0210054D01*
X0132725Y0210048D01*
X0132693Y0210039D01*
X0132662Y0210026D01*
X0132632Y0210010D01*
X0132605Y0209991D01*
X0132580Y0209968D01*
X0132557Y0209943D01*
X0132538Y0209916D01*
X0132522Y0209886D01*
X0132509Y0209855D01*
X0132500Y0209823D01*
X0132494Y0209790D01*
X0132492Y0209756D01*
X0132494Y0209722D01*
X0132500Y0209689D01*
X0132509Y0209657D01*
X0132522Y0209626D01*
X0132538Y0209596D01*
X0132557Y0209569D01*
X0132580Y0209544D01*
X0132605Y0209521D01*
X0132632Y0209502D01*
X0132662Y0209486D01*
X0132693Y0209473D01*
X0132725Y0209464D01*
X0132758Y0209458D01*
X0132792Y0209456D01*
X0125292Y0182156D02*
X0108292Y0182156D01*
X0108232Y0182154D01*
X0108171Y0182149D01*
X0108112Y0182140D01*
X0108053Y0182127D01*
X0107994Y0182111D01*
X0107937Y0182091D01*
X0107882Y0182068D01*
X0107827Y0182041D01*
X0107775Y0182012D01*
X0107724Y0181979D01*
X0107675Y0181943D01*
X0107629Y0181905D01*
X0107585Y0181863D01*
X0107543Y0181819D01*
X0107505Y0181773D01*
X0107469Y0181724D01*
X0107436Y0181673D01*
X0107407Y0181621D01*
X0107380Y0181566D01*
X0107357Y0181511D01*
X0107337Y0181454D01*
X0107321Y0181395D01*
X0107308Y0181336D01*
X0107299Y0181277D01*
X0107294Y0181216D01*
X0107292Y0181156D01*
X0107292Y0175156D01*
X0107294Y0175096D01*
X0107299Y0175035D01*
X0107308Y0174976D01*
X0107321Y0174917D01*
X0107337Y0174858D01*
X0107357Y0174801D01*
X0107380Y0174746D01*
X0107407Y0174691D01*
X0107436Y0174639D01*
X0107469Y0174588D01*
X0107505Y0174539D01*
X0107543Y0174493D01*
X0107585Y0174449D01*
X0107629Y0174407D01*
X0107675Y0174369D01*
X0107724Y0174333D01*
X0107775Y0174300D01*
X0107827Y0174271D01*
X0107882Y0174244D01*
X0107937Y0174221D01*
X0107994Y0174201D01*
X0108053Y0174185D01*
X0108112Y0174172D01*
X0108171Y0174163D01*
X0108232Y0174158D01*
X0108292Y0174156D01*
X0125292Y0174156D01*
X0125352Y0174158D01*
X0125413Y0174163D01*
X0125472Y0174172D01*
X0125531Y0174185D01*
X0125590Y0174201D01*
X0125647Y0174221D01*
X0125702Y0174244D01*
X0125757Y0174271D01*
X0125809Y0174300D01*
X0125860Y0174333D01*
X0125909Y0174369D01*
X0125955Y0174407D01*
X0125999Y0174449D01*
X0126041Y0174493D01*
X0126079Y0174539D01*
X0126115Y0174588D01*
X0126148Y0174639D01*
X0126177Y0174691D01*
X0126204Y0174746D01*
X0126227Y0174801D01*
X0126247Y0174858D01*
X0126263Y0174917D01*
X0126276Y0174976D01*
X0126285Y0175035D01*
X0126290Y0175096D01*
X0126292Y0175156D01*
X0126292Y0181156D01*
X0126290Y0181216D01*
X0126285Y0181277D01*
X0126276Y0181336D01*
X0126263Y0181395D01*
X0126247Y0181454D01*
X0126227Y0181511D01*
X0126204Y0181566D01*
X0126177Y0181621D01*
X0126148Y0181673D01*
X0126115Y0181724D01*
X0126079Y0181773D01*
X0126041Y0181819D01*
X0125999Y0181863D01*
X0125955Y0181905D01*
X0125909Y0181943D01*
X0125860Y0181979D01*
X0125809Y0182012D01*
X0125757Y0182041D01*
X0125702Y0182068D01*
X0125647Y0182091D01*
X0125590Y0182111D01*
X0125531Y0182127D01*
X0125472Y0182140D01*
X0125413Y0182149D01*
X0125352Y0182154D01*
X0125292Y0182156D01*
X0064231Y0183437D02*
X0064231Y0185572D01*
X0064231Y0184504D02*
X0059960Y0184504D01*
X0059960Y0183437D01*
X0057825Y0184504D02*
X0056758Y0184504D01*
X0058893Y0181261D02*
X0063163Y0176991D01*
X0064231Y0178059D01*
X0064231Y0180194D01*
X0063163Y0181261D01*
X0058893Y0181261D01*
X0057825Y0180194D01*
X0057825Y0178059D01*
X0058893Y0176991D01*
X0063163Y0176991D01*
X0063163Y0174816D02*
X0061028Y0174816D01*
X0059960Y0173748D01*
X0059960Y0172681D01*
X0061028Y0170546D01*
X0057825Y0170546D01*
X0057825Y0174816D01*
X0063163Y0174816D02*
X0064231Y0173748D01*
X0064231Y0171613D01*
X0063163Y0170546D01*
X0063163Y0168370D02*
X0061028Y0168370D01*
X0059960Y0167303D01*
X0059960Y0166235D01*
X0061028Y0164100D01*
X0057825Y0164100D01*
X0057825Y0168370D01*
X0063163Y0168370D02*
X0064231Y0167303D01*
X0064231Y0165168D01*
X0063163Y0164100D01*
X0063163Y0161945D02*
X0064231Y0161945D01*
X0064231Y0160877D01*
X0063163Y0160877D01*
X0063163Y0161945D01*
X0064231Y0158702D02*
X0064231Y0154432D01*
X0064231Y0156567D02*
X0057825Y0156567D01*
X0059960Y0154432D01*
X0059960Y0187734D02*
X0059960Y0190936D01*
X0061028Y0192004D01*
X0064231Y0192004D01*
X0063163Y0194179D02*
X0061028Y0194179D01*
X0059960Y0195247D01*
X0059960Y0198449D01*
X0061028Y0200625D02*
X0059960Y0201692D01*
X0059960Y0203827D01*
X0061028Y0204895D01*
X0064231Y0204895D01*
X0064231Y0200625D02*
X0057825Y0200625D01*
X0064231Y0198449D02*
X0064231Y0195247D01*
X0063163Y0194179D01*
X0064231Y0187734D02*
X0059960Y0187734D01*
X0143068Y0265718D02*
X0147339Y0265718D01*
X0145204Y0265718D02*
X0145204Y0272123D01*
X0143068Y0269988D01*
X0149514Y0266785D02*
X0150582Y0266785D01*
X0150582Y0265718D01*
X0149514Y0265718D01*
X0149514Y0266785D01*
X0152737Y0266785D02*
X0152737Y0265718D01*
X0152737Y0266785D02*
X0157007Y0271056D01*
X0157007Y0272123D01*
X0152737Y0272123D01*
X0159182Y0272123D02*
X0159182Y0268920D01*
X0161317Y0269988D01*
X0162385Y0269988D01*
X0163453Y0268920D01*
X0163453Y0266785D01*
X0162385Y0265718D01*
X0160250Y0265718D01*
X0159182Y0266785D01*
X0159182Y0272123D02*
X0163453Y0272123D01*
X0165628Y0271056D02*
X0166695Y0272123D01*
X0168830Y0272123D01*
X0169898Y0271056D01*
X0165628Y0266785D01*
X0166695Y0265718D01*
X0168830Y0265718D01*
X0169898Y0266785D01*
X0169898Y0271056D01*
X0172073Y0269988D02*
X0173141Y0269988D01*
X0173141Y0265718D01*
X0174208Y0265718D02*
X0172073Y0265718D01*
X0176370Y0265718D02*
X0176370Y0269988D01*
X0179573Y0269988D01*
X0180641Y0268920D01*
X0180641Y0265718D01*
X0182816Y0266785D02*
X0183883Y0265718D01*
X0187086Y0265718D01*
X0189261Y0265718D02*
X0189261Y0272123D01*
X0190329Y0269988D02*
X0192464Y0269988D01*
X0193531Y0268920D01*
X0193531Y0265718D01*
X0189261Y0268920D02*
X0190329Y0269988D01*
X0187086Y0269988D02*
X0183883Y0269988D01*
X0182816Y0268920D01*
X0182816Y0266785D01*
X0173141Y0272123D02*
X0173141Y0273191D01*
X0165628Y0271056D02*
X0165628Y0266785D01*
X0164792Y0112156D02*
X0147792Y0112156D01*
X0147732Y0112154D01*
X0147671Y0112149D01*
X0147612Y0112140D01*
X0147553Y0112127D01*
X0147494Y0112111D01*
X0147437Y0112091D01*
X0147382Y0112068D01*
X0147327Y0112041D01*
X0147275Y0112012D01*
X0147224Y0111979D01*
X0147175Y0111943D01*
X0147129Y0111905D01*
X0147085Y0111863D01*
X0147043Y0111819D01*
X0147005Y0111773D01*
X0146969Y0111724D01*
X0146936Y0111673D01*
X0146907Y0111621D01*
X0146880Y0111566D01*
X0146857Y0111511D01*
X0146837Y0111454D01*
X0146821Y0111395D01*
X0146808Y0111336D01*
X0146799Y0111277D01*
X0146794Y0111216D01*
X0146792Y0111156D01*
X0146792Y0105156D01*
X0146794Y0105096D01*
X0146799Y0105035D01*
X0146808Y0104976D01*
X0146821Y0104917D01*
X0146837Y0104858D01*
X0146857Y0104801D01*
X0146880Y0104746D01*
X0146907Y0104691D01*
X0146936Y0104639D01*
X0146969Y0104588D01*
X0147005Y0104539D01*
X0147043Y0104493D01*
X0147085Y0104449D01*
X0147129Y0104407D01*
X0147175Y0104369D01*
X0147224Y0104333D01*
X0147275Y0104300D01*
X0147327Y0104271D01*
X0147382Y0104244D01*
X0147437Y0104221D01*
X0147494Y0104201D01*
X0147553Y0104185D01*
X0147612Y0104172D01*
X0147671Y0104163D01*
X0147732Y0104158D01*
X0147792Y0104156D01*
X0164792Y0104156D01*
X0164852Y0104158D01*
X0164913Y0104163D01*
X0164972Y0104172D01*
X0165031Y0104185D01*
X0165090Y0104201D01*
X0165147Y0104221D01*
X0165202Y0104244D01*
X0165257Y0104271D01*
X0165309Y0104300D01*
X0165360Y0104333D01*
X0165409Y0104369D01*
X0165455Y0104407D01*
X0165499Y0104449D01*
X0165541Y0104493D01*
X0165579Y0104539D01*
X0165615Y0104588D01*
X0165648Y0104639D01*
X0165677Y0104691D01*
X0165704Y0104746D01*
X0165727Y0104801D01*
X0165747Y0104858D01*
X0165763Y0104917D01*
X0165776Y0104976D01*
X0165785Y0105035D01*
X0165790Y0105096D01*
X0165792Y0105156D01*
X0165792Y0111156D01*
X0165790Y0111216D01*
X0165785Y0111277D01*
X0165776Y0111336D01*
X0165763Y0111395D01*
X0165747Y0111454D01*
X0165727Y0111511D01*
X0165704Y0111566D01*
X0165677Y0111621D01*
X0165648Y0111673D01*
X0165615Y0111724D01*
X0165579Y0111773D01*
X0165541Y0111819D01*
X0165499Y0111863D01*
X0165455Y0111905D01*
X0165409Y0111943D01*
X0165360Y0111979D01*
X0165309Y0112012D01*
X0165257Y0112041D01*
X0165202Y0112068D01*
X0165147Y0112091D01*
X0165090Y0112111D01*
X0165031Y0112127D01*
X0164972Y0112140D01*
X0164913Y0112149D01*
X0164852Y0112154D01*
X0164792Y0112156D01*
X0167292Y0111156D02*
X0167292Y0105156D01*
X0167294Y0105096D01*
X0167299Y0105035D01*
X0167308Y0104976D01*
X0167321Y0104917D01*
X0167337Y0104858D01*
X0167357Y0104801D01*
X0167380Y0104746D01*
X0167407Y0104691D01*
X0167436Y0104639D01*
X0167469Y0104588D01*
X0167505Y0104539D01*
X0167543Y0104493D01*
X0167585Y0104449D01*
X0167629Y0104407D01*
X0167675Y0104369D01*
X0167724Y0104333D01*
X0167775Y0104300D01*
X0167827Y0104271D01*
X0167882Y0104244D01*
X0167937Y0104221D01*
X0167994Y0104201D01*
X0168053Y0104185D01*
X0168112Y0104172D01*
X0168171Y0104163D01*
X0168232Y0104158D01*
X0168292Y0104156D01*
X0179292Y0104156D01*
X0179352Y0104158D01*
X0179413Y0104163D01*
X0179472Y0104172D01*
X0179531Y0104185D01*
X0179590Y0104201D01*
X0179647Y0104221D01*
X0179702Y0104244D01*
X0179757Y0104271D01*
X0179809Y0104300D01*
X0179860Y0104333D01*
X0179909Y0104369D01*
X0179955Y0104407D01*
X0179999Y0104449D01*
X0180041Y0104493D01*
X0180079Y0104539D01*
X0180115Y0104588D01*
X0180148Y0104639D01*
X0180177Y0104691D01*
X0180204Y0104746D01*
X0180227Y0104801D01*
X0180247Y0104858D01*
X0180263Y0104917D01*
X0180276Y0104976D01*
X0180285Y0105035D01*
X0180290Y0105096D01*
X0180292Y0105156D01*
X0180292Y0111156D01*
X0180290Y0111216D01*
X0180285Y0111277D01*
X0180276Y0111336D01*
X0180263Y0111395D01*
X0180247Y0111454D01*
X0180227Y0111511D01*
X0180204Y0111566D01*
X0180177Y0111621D01*
X0180148Y0111673D01*
X0180115Y0111724D01*
X0180079Y0111773D01*
X0180041Y0111819D01*
X0179999Y0111863D01*
X0179955Y0111905D01*
X0179909Y0111943D01*
X0179860Y0111979D01*
X0179809Y0112012D01*
X0179757Y0112041D01*
X0179702Y0112068D01*
X0179647Y0112091D01*
X0179590Y0112111D01*
X0179531Y0112127D01*
X0179472Y0112140D01*
X0179413Y0112149D01*
X0179352Y0112154D01*
X0179292Y0112156D01*
X0168292Y0112156D01*
X0168232Y0112154D01*
X0168171Y0112149D01*
X0168112Y0112140D01*
X0168053Y0112127D01*
X0167994Y0112111D01*
X0167937Y0112091D01*
X0167882Y0112068D01*
X0167827Y0112041D01*
X0167775Y0112012D01*
X0167724Y0111979D01*
X0167675Y0111943D01*
X0167629Y0111905D01*
X0167585Y0111863D01*
X0167543Y0111819D01*
X0167505Y0111773D01*
X0167469Y0111724D01*
X0167436Y0111673D01*
X0167407Y0111621D01*
X0167380Y0111566D01*
X0167357Y0111511D01*
X0167337Y0111454D01*
X0167321Y0111395D01*
X0167308Y0111336D01*
X0167299Y0111277D01*
X0167294Y0111216D01*
X0167292Y0111156D01*
X0302092Y0082361D02*
X0302092Y0075956D01*
X0302092Y0071861D02*
X0306363Y0071861D01*
X0304228Y0071861D02*
X0304228Y0065456D01*
X0308538Y0065456D02*
X0308538Y0071861D01*
X0309606Y0069726D02*
X0311741Y0069726D01*
X0312808Y0068659D01*
X0312808Y0065456D01*
X0314983Y0065456D02*
X0317119Y0065456D01*
X0316051Y0065456D02*
X0316051Y0069726D01*
X0314983Y0069726D01*
X0316051Y0071861D02*
X0316051Y0072929D01*
X0317119Y0075956D02*
X0316051Y0077023D01*
X0316051Y0081294D01*
X0314983Y0080226D02*
X0317119Y0080226D01*
X0319280Y0079159D02*
X0320348Y0080226D01*
X0322483Y0080226D01*
X0323551Y0079159D01*
X0323551Y0078091D01*
X0319280Y0078091D01*
X0319280Y0077023D02*
X0319280Y0079159D01*
X0319280Y0077023D02*
X0320348Y0075956D01*
X0322483Y0075956D01*
X0325726Y0075956D02*
X0325726Y0080226D01*
X0325726Y0078091D02*
X0327861Y0080226D01*
X0328929Y0080226D01*
X0331097Y0080226D02*
X0332165Y0080226D01*
X0332165Y0075956D01*
X0333232Y0075956D02*
X0331097Y0075956D01*
X0335394Y0077023D02*
X0336462Y0078091D01*
X0339665Y0078091D01*
X0339665Y0079159D02*
X0339665Y0075956D01*
X0336462Y0075956D01*
X0335394Y0077023D01*
X0336462Y0080226D02*
X0338597Y0080226D01*
X0339665Y0079159D01*
X0341840Y0075956D02*
X0343975Y0075956D01*
X0342907Y0075956D02*
X0342907Y0082361D01*
X0341840Y0082361D01*
X0346137Y0080226D02*
X0346137Y0079159D01*
X0347204Y0079159D01*
X0347204Y0080226D01*
X0346137Y0080226D01*
X0346137Y0077023D02*
X0346137Y0075956D01*
X0347204Y0075956D01*
X0347204Y0077023D01*
X0346137Y0077023D01*
X0355805Y0075956D02*
X0355805Y0082361D01*
X0360075Y0082361D01*
X0362250Y0082361D02*
X0365453Y0082361D01*
X0366521Y0081294D01*
X0366521Y0079159D01*
X0365453Y0078091D01*
X0362250Y0078091D01*
X0362250Y0075956D02*
X0362250Y0082361D01*
X0364386Y0078091D02*
X0366521Y0075956D01*
X0368696Y0079159D02*
X0372966Y0079159D01*
X0371899Y0082361D02*
X0371899Y0075956D01*
X0368696Y0079159D02*
X0371899Y0082361D01*
X0357940Y0079159D02*
X0355805Y0079159D01*
X0366547Y0070794D02*
X0367615Y0071861D01*
X0369750Y0071861D01*
X0370818Y0070794D01*
X0366547Y0066523D01*
X0367615Y0065456D01*
X0369750Y0065456D01*
X0370818Y0066523D01*
X0370818Y0070794D01*
X0366547Y0070794D02*
X0366547Y0066523D01*
X0372993Y0066523D02*
X0374060Y0066523D01*
X0374060Y0065456D01*
X0372993Y0065456D01*
X0372993Y0066523D01*
X0376216Y0066523D02*
X0376216Y0070794D01*
X0377283Y0071861D01*
X0379418Y0071861D01*
X0380486Y0070794D01*
X0376216Y0066523D01*
X0377283Y0065456D01*
X0379418Y0065456D01*
X0380486Y0066523D01*
X0380486Y0070794D01*
X0382661Y0068659D02*
X0385864Y0068659D01*
X0386931Y0067591D01*
X0386931Y0066523D01*
X0385864Y0065456D01*
X0383729Y0065456D01*
X0382661Y0066523D01*
X0382661Y0068659D01*
X0384796Y0070794D01*
X0386931Y0071861D01*
X0389107Y0070794D02*
X0390174Y0071861D01*
X0392309Y0071861D01*
X0393377Y0070794D01*
X0393377Y0069726D01*
X0389107Y0065456D01*
X0393377Y0065456D01*
X0395552Y0069726D02*
X0396620Y0070794D01*
X0396620Y0072929D01*
X0398755Y0072929D02*
X0398755Y0070794D01*
X0397687Y0069726D01*
X0401991Y0061361D02*
X0400923Y0060294D01*
X0400923Y0059226D01*
X0405194Y0054956D01*
X0405194Y0057091D02*
X0403059Y0054956D01*
X0401991Y0054956D01*
X0400923Y0056023D01*
X0400923Y0057091D01*
X0403059Y0059226D01*
X0403059Y0060294D01*
X0401991Y0061361D01*
X0392303Y0058159D02*
X0392303Y0056023D01*
X0391235Y0054956D01*
X0388032Y0054956D01*
X0388032Y0052821D02*
X0388032Y0059226D01*
X0391235Y0059226D01*
X0392303Y0058159D01*
X0385857Y0058159D02*
X0385857Y0056023D01*
X0384790Y0054956D01*
X0382654Y0054956D01*
X0381587Y0056023D01*
X0381587Y0058159D01*
X0382654Y0059226D01*
X0384790Y0059226D01*
X0385857Y0058159D01*
X0379412Y0061361D02*
X0375141Y0061361D01*
X0377277Y0061361D02*
X0377277Y0054956D01*
X0375121Y0050861D02*
X0372986Y0050861D01*
X0371919Y0049794D01*
X0371919Y0045523D01*
X0372986Y0044456D01*
X0375121Y0044456D01*
X0376189Y0045523D01*
X0376189Y0047659D01*
X0374054Y0047659D01*
X0376189Y0049794D02*
X0375121Y0050861D01*
X0378364Y0048726D02*
X0378364Y0044456D01*
X0378364Y0046591D02*
X0380499Y0048726D01*
X0381567Y0048726D01*
X0383735Y0047659D02*
X0384803Y0048726D01*
X0386938Y0048726D01*
X0388006Y0047659D01*
X0388006Y0046591D01*
X0383735Y0046591D01*
X0383735Y0045523D02*
X0383735Y0047659D01*
X0383735Y0045523D02*
X0384803Y0044456D01*
X0386938Y0044456D01*
X0390181Y0045523D02*
X0390181Y0047659D01*
X0391248Y0048726D01*
X0393384Y0048726D01*
X0394451Y0047659D01*
X0394451Y0046591D01*
X0390181Y0046591D01*
X0390181Y0045523D02*
X0391248Y0044456D01*
X0393384Y0044456D01*
X0396626Y0044456D02*
X0396626Y0048726D01*
X0399829Y0048726D01*
X0400897Y0047659D01*
X0400897Y0044456D01*
X0399829Y0038226D02*
X0397694Y0038226D01*
X0396626Y0037159D01*
X0396626Y0035023D01*
X0397694Y0033956D01*
X0399829Y0033956D01*
X0400897Y0036091D02*
X0396626Y0036091D01*
X0394451Y0036091D02*
X0390181Y0036091D01*
X0390181Y0035023D02*
X0390181Y0037159D01*
X0391248Y0038226D01*
X0393384Y0038226D01*
X0394451Y0037159D01*
X0394451Y0036091D01*
X0393384Y0033956D02*
X0391248Y0033956D01*
X0390181Y0035023D01*
X0388012Y0038226D02*
X0386945Y0038226D01*
X0384810Y0036091D01*
X0384810Y0033956D02*
X0384810Y0038226D01*
X0382634Y0040361D02*
X0378364Y0040361D01*
X0378364Y0033956D01*
X0376216Y0029861D02*
X0376216Y0023456D01*
X0374040Y0023456D02*
X0374040Y0029861D01*
X0376216Y0026659D02*
X0377283Y0027726D01*
X0379418Y0027726D01*
X0380486Y0026659D01*
X0380486Y0023456D01*
X0382661Y0023456D02*
X0384796Y0023456D01*
X0383729Y0023456D02*
X0383729Y0027726D01*
X0382661Y0027726D01*
X0383729Y0029861D02*
X0383729Y0030929D01*
X0386958Y0027726D02*
X0389093Y0027726D01*
X0388026Y0028794D02*
X0388026Y0024523D01*
X0389093Y0023456D01*
X0391255Y0024523D02*
X0391255Y0026659D01*
X0392323Y0027726D01*
X0394458Y0027726D01*
X0395525Y0026659D01*
X0395525Y0025591D01*
X0391255Y0025591D01*
X0391255Y0024523D02*
X0392323Y0023456D01*
X0394458Y0023456D01*
X0404146Y0029861D02*
X0408416Y0029861D01*
X0406281Y0029861D02*
X0406281Y0023456D01*
X0410592Y0024523D02*
X0410592Y0026659D01*
X0411659Y0027726D01*
X0413794Y0027726D01*
X0414862Y0026659D01*
X0414862Y0024523D01*
X0413794Y0023456D01*
X0411659Y0023456D01*
X0410592Y0024523D01*
X0417037Y0023456D02*
X0420240Y0023456D01*
X0421307Y0024523D01*
X0421307Y0026659D01*
X0420240Y0027726D01*
X0417037Y0027726D01*
X0417037Y0021321D01*
X0429928Y0024523D02*
X0429928Y0025591D01*
X0432063Y0027726D01*
X0432063Y0028794D01*
X0430996Y0029861D01*
X0429928Y0028794D01*
X0429928Y0027726D01*
X0434198Y0023456D01*
X0434198Y0025591D02*
X0432063Y0023456D01*
X0430996Y0023456D01*
X0429928Y0024523D01*
X0442819Y0023456D02*
X0446022Y0023456D01*
X0447089Y0024523D01*
X0447089Y0025591D01*
X0446022Y0026659D01*
X0442819Y0026659D01*
X0442819Y0029861D02*
X0442819Y0023456D01*
X0446022Y0026659D02*
X0447089Y0027726D01*
X0447089Y0028794D01*
X0446022Y0029861D01*
X0442819Y0029861D01*
X0449265Y0026659D02*
X0449265Y0024523D01*
X0450332Y0023456D01*
X0452467Y0023456D01*
X0453535Y0024523D01*
X0453535Y0026659D01*
X0452467Y0027726D01*
X0450332Y0027726D01*
X0449265Y0026659D01*
X0455710Y0027726D02*
X0457845Y0027726D01*
X0456778Y0028794D02*
X0456778Y0024523D01*
X0457845Y0023456D01*
X0461075Y0024523D02*
X0462142Y0023456D01*
X0461075Y0024523D02*
X0461075Y0028794D01*
X0462142Y0027726D02*
X0460007Y0027726D01*
X0464304Y0026659D02*
X0464304Y0024523D01*
X0465372Y0023456D01*
X0467507Y0023456D01*
X0468574Y0024523D01*
X0468574Y0026659D01*
X0467507Y0027726D01*
X0465372Y0027726D01*
X0464304Y0026659D01*
X0470750Y0027726D02*
X0470750Y0023456D01*
X0472885Y0023456D02*
X0472885Y0026659D01*
X0473952Y0027726D01*
X0475020Y0026659D01*
X0475020Y0023456D01*
X0472885Y0026659D02*
X0471817Y0027726D01*
X0470750Y0027726D01*
X0470743Y0044456D02*
X0469675Y0045523D01*
X0469675Y0047659D01*
X0470743Y0048726D01*
X0472878Y0048726D01*
X0473946Y0047659D01*
X0473946Y0045523D01*
X0472878Y0044456D01*
X0470743Y0044456D01*
X0467514Y0044456D02*
X0466446Y0045523D01*
X0466446Y0049794D01*
X0465378Y0048726D02*
X0467514Y0048726D01*
X0463217Y0048726D02*
X0461081Y0048726D01*
X0462149Y0049794D02*
X0462149Y0045523D01*
X0463217Y0044456D01*
X0458906Y0045523D02*
X0458906Y0047659D01*
X0457839Y0048726D01*
X0455703Y0048726D01*
X0454636Y0047659D01*
X0454636Y0045523D01*
X0455703Y0044456D01*
X0457839Y0044456D01*
X0458906Y0045523D01*
X0452461Y0045523D02*
X0451393Y0044456D01*
X0448190Y0044456D01*
X0448190Y0050861D01*
X0451393Y0050861D01*
X0452461Y0049794D01*
X0452461Y0048726D01*
X0451393Y0047659D01*
X0448190Y0047659D01*
X0451393Y0047659D02*
X0452461Y0046591D01*
X0452461Y0045523D01*
X0446015Y0054956D02*
X0446015Y0058159D01*
X0444948Y0059226D01*
X0443880Y0058159D01*
X0443880Y0054956D01*
X0441745Y0054956D02*
X0441745Y0059226D01*
X0442812Y0059226D01*
X0443880Y0058159D01*
X0439570Y0058159D02*
X0439570Y0056023D01*
X0438502Y0054956D01*
X0436367Y0054956D01*
X0435299Y0056023D01*
X0435299Y0058159D01*
X0436367Y0059226D01*
X0438502Y0059226D01*
X0439570Y0058159D01*
X0433138Y0059226D02*
X0431002Y0059226D01*
X0432070Y0060294D02*
X0432070Y0056023D01*
X0433138Y0054956D01*
X0428841Y0054956D02*
X0427773Y0056023D01*
X0427773Y0060294D01*
X0426705Y0059226D02*
X0428841Y0059226D01*
X0424530Y0058159D02*
X0424530Y0056023D01*
X0423463Y0054956D01*
X0421327Y0054956D01*
X0420260Y0056023D01*
X0420260Y0058159D01*
X0421327Y0059226D01*
X0423463Y0059226D01*
X0424530Y0058159D01*
X0418085Y0059226D02*
X0418085Y0060294D01*
X0417017Y0061361D01*
X0413814Y0061361D01*
X0413814Y0054956D01*
X0417017Y0054956D01*
X0418085Y0056023D01*
X0418085Y0057091D01*
X0417017Y0058159D01*
X0413814Y0058159D01*
X0417017Y0058159D02*
X0418085Y0059226D01*
X0413788Y0050861D02*
X0409517Y0050861D01*
X0411653Y0050861D02*
X0411653Y0044456D01*
X0415963Y0045523D02*
X0417030Y0044456D01*
X0419166Y0044456D01*
X0420233Y0045523D01*
X0420233Y0047659D01*
X0419166Y0048726D01*
X0417030Y0048726D01*
X0415963Y0047659D01*
X0415963Y0045523D01*
X0422408Y0044456D02*
X0425611Y0044456D01*
X0426679Y0045523D01*
X0426679Y0047659D01*
X0425611Y0048726D01*
X0422408Y0048726D01*
X0422408Y0042321D01*
X0435299Y0045523D02*
X0436367Y0044456D01*
X0437435Y0044456D01*
X0439570Y0046591D01*
X0439570Y0044456D02*
X0435299Y0048726D01*
X0435299Y0049794D01*
X0436367Y0050861D01*
X0437435Y0049794D01*
X0437435Y0048726D01*
X0435299Y0046591D01*
X0435299Y0045523D01*
X0400897Y0037159D02*
X0400897Y0036091D01*
X0400897Y0037159D02*
X0399829Y0038226D01*
X0380499Y0037159D02*
X0378364Y0037159D01*
X0369743Y0038226D02*
X0366541Y0038226D01*
X0365473Y0037159D01*
X0365473Y0035023D01*
X0366541Y0033956D01*
X0369743Y0033956D01*
X0369743Y0040361D01*
X0363298Y0037159D02*
X0363298Y0033956D01*
X0360095Y0033956D01*
X0359028Y0035023D01*
X0360095Y0036091D01*
X0363298Y0036091D01*
X0363298Y0037159D02*
X0362230Y0038226D01*
X0360095Y0038226D01*
X0356852Y0037159D02*
X0356852Y0036091D01*
X0352582Y0036091D01*
X0352582Y0035023D02*
X0352582Y0037159D01*
X0353650Y0038226D01*
X0355785Y0038226D01*
X0356852Y0037159D01*
X0353650Y0033956D02*
X0352582Y0035023D01*
X0353650Y0033956D02*
X0355785Y0033956D01*
X0350407Y0033956D02*
X0346137Y0033956D01*
X0346137Y0040361D01*
X0345056Y0044456D02*
X0343988Y0045523D01*
X0345056Y0046591D01*
X0348259Y0046591D01*
X0348259Y0047659D02*
X0348259Y0044456D01*
X0345056Y0044456D01*
X0341813Y0044456D02*
X0341813Y0047659D01*
X0340745Y0048726D01*
X0339678Y0047659D01*
X0339678Y0044456D01*
X0337543Y0044456D02*
X0337543Y0048726D01*
X0338610Y0048726D01*
X0339678Y0047659D01*
X0335374Y0048726D02*
X0334307Y0048726D01*
X0332171Y0046591D01*
X0332171Y0044456D02*
X0332171Y0048726D01*
X0329996Y0047659D02*
X0329996Y0046591D01*
X0325726Y0046591D01*
X0325726Y0045523D02*
X0325726Y0047659D01*
X0326794Y0048726D01*
X0328929Y0048726D01*
X0329996Y0047659D01*
X0328929Y0044456D02*
X0326794Y0044456D01*
X0325726Y0045523D01*
X0323551Y0044456D02*
X0320348Y0044456D01*
X0319280Y0045523D01*
X0319280Y0047659D01*
X0320348Y0048726D01*
X0323551Y0048726D01*
X0323551Y0050861D02*
X0323551Y0044456D01*
X0320348Y0041429D02*
X0320348Y0040361D01*
X0320348Y0038226D02*
X0320348Y0033956D01*
X0319280Y0033956D02*
X0321416Y0033956D01*
X0323577Y0033956D02*
X0326780Y0033956D01*
X0327848Y0035023D01*
X0326780Y0036091D01*
X0324645Y0036091D01*
X0323577Y0037159D01*
X0324645Y0038226D01*
X0327848Y0038226D01*
X0330023Y0037159D02*
X0331091Y0038226D01*
X0333226Y0038226D01*
X0334293Y0037159D01*
X0334293Y0033956D01*
X0336468Y0033956D02*
X0336468Y0035023D01*
X0337536Y0035023D01*
X0337536Y0033956D01*
X0336468Y0033956D01*
X0336468Y0037159D02*
X0336468Y0038226D01*
X0337536Y0038226D01*
X0337536Y0037159D01*
X0336468Y0037159D01*
X0330023Y0040361D02*
X0330023Y0033956D01*
X0330016Y0027726D02*
X0328949Y0026659D01*
X0328949Y0024523D01*
X0330016Y0023456D01*
X0333219Y0023456D01*
X0335394Y0023456D02*
X0335394Y0027726D01*
X0335394Y0025591D02*
X0337529Y0027726D01*
X0338597Y0027726D01*
X0340765Y0026659D02*
X0340765Y0024523D01*
X0341833Y0023456D01*
X0343968Y0023456D01*
X0345036Y0025591D02*
X0340765Y0025591D01*
X0340765Y0026659D02*
X0341833Y0027726D01*
X0343968Y0027726D01*
X0345036Y0026659D01*
X0345036Y0025591D01*
X0347211Y0025591D02*
X0351481Y0025591D01*
X0351481Y0026659D01*
X0350414Y0027726D01*
X0348279Y0027726D01*
X0347211Y0026659D01*
X0347211Y0024523D01*
X0348279Y0023456D01*
X0350414Y0023456D01*
X0353656Y0023456D02*
X0353656Y0027726D01*
X0356859Y0027726D01*
X0357927Y0026659D01*
X0357927Y0023456D01*
X0360102Y0023456D02*
X0360102Y0024523D01*
X0361170Y0024523D01*
X0361170Y0023456D01*
X0360102Y0023456D01*
X0360102Y0026659D02*
X0360102Y0027726D01*
X0361170Y0027726D01*
X0361170Y0026659D01*
X0360102Y0026659D01*
X0369770Y0029861D02*
X0369770Y0023456D01*
X0371905Y0025591D01*
X0374040Y0023456D01*
X0363318Y0044456D02*
X0362250Y0044456D01*
X0362250Y0045523D01*
X0363318Y0045523D01*
X0363318Y0044456D01*
X0363318Y0047659D02*
X0362250Y0047659D01*
X0362250Y0048726D01*
X0363318Y0048726D01*
X0363318Y0047659D01*
X0360082Y0048726D02*
X0356879Y0046591D01*
X0360082Y0044456D01*
X0356879Y0044456D02*
X0356879Y0050861D01*
X0354704Y0048726D02*
X0351501Y0048726D01*
X0350434Y0047659D01*
X0351501Y0046591D01*
X0353636Y0046591D01*
X0354704Y0045523D01*
X0353636Y0044456D01*
X0350434Y0044456D01*
X0348259Y0047659D02*
X0347191Y0048726D01*
X0345056Y0048726D01*
X0340759Y0054956D02*
X0339691Y0054956D01*
X0339691Y0056023D01*
X0340759Y0056023D01*
X0340759Y0054956D01*
X0340759Y0058159D02*
X0339691Y0058159D01*
X0339691Y0059226D01*
X0340759Y0059226D01*
X0340759Y0058159D01*
X0337523Y0059226D02*
X0336455Y0059226D01*
X0334320Y0057091D01*
X0334320Y0054956D02*
X0334320Y0059226D01*
X0332145Y0058159D02*
X0332145Y0057091D01*
X0327874Y0057091D01*
X0327874Y0056023D02*
X0327874Y0058159D01*
X0328942Y0059226D01*
X0331077Y0059226D01*
X0332145Y0058159D01*
X0331077Y0054956D02*
X0328942Y0054956D01*
X0327874Y0056023D01*
X0325699Y0056023D02*
X0324632Y0054956D01*
X0321429Y0054956D01*
X0321429Y0052821D02*
X0321429Y0059226D01*
X0324632Y0059226D01*
X0325699Y0058159D01*
X0325699Y0056023D01*
X0319254Y0056023D02*
X0318186Y0054956D01*
X0314983Y0054956D01*
X0314983Y0052821D02*
X0314983Y0059226D01*
X0318186Y0059226D01*
X0319254Y0058159D01*
X0319254Y0056023D01*
X0312808Y0056023D02*
X0312808Y0058159D01*
X0311741Y0059226D01*
X0309606Y0059226D01*
X0308538Y0058159D01*
X0308538Y0056023D01*
X0309606Y0054956D01*
X0311741Y0054956D01*
X0312808Y0056023D01*
X0306363Y0056023D02*
X0305295Y0054956D01*
X0303160Y0054956D01*
X0302092Y0056023D01*
X0302092Y0060294D01*
X0303160Y0061361D01*
X0305295Y0061361D01*
X0306363Y0060294D01*
X0319280Y0066523D02*
X0320348Y0065456D01*
X0323551Y0065456D01*
X0325726Y0065456D02*
X0325726Y0071861D01*
X0323551Y0069726D02*
X0320348Y0069726D01*
X0319280Y0068659D01*
X0319280Y0066523D01*
X0325726Y0067591D02*
X0328929Y0069726D01*
X0331097Y0069726D02*
X0331097Y0065456D01*
X0328929Y0065456D02*
X0325726Y0067591D01*
X0331097Y0069726D02*
X0334300Y0069726D01*
X0335368Y0068659D01*
X0335368Y0065456D01*
X0337543Y0066523D02*
X0337543Y0068659D01*
X0338610Y0069726D01*
X0340745Y0069726D01*
X0341813Y0068659D01*
X0341813Y0067591D01*
X0337543Y0067591D01*
X0337543Y0066523D02*
X0338610Y0065456D01*
X0340745Y0065456D01*
X0343988Y0065456D02*
X0347191Y0065456D01*
X0348259Y0066523D01*
X0347191Y0067591D01*
X0345056Y0067591D01*
X0343988Y0068659D01*
X0345056Y0069726D01*
X0348259Y0069726D01*
X0350434Y0068659D02*
X0351501Y0067591D01*
X0353636Y0067591D01*
X0354704Y0066523D01*
X0353636Y0065456D01*
X0350434Y0065456D01*
X0350434Y0068659D02*
X0351501Y0069726D01*
X0354704Y0069726D01*
X0356879Y0069726D02*
X0356879Y0068659D01*
X0357947Y0068659D01*
X0357947Y0069726D01*
X0356879Y0069726D01*
X0356879Y0066523D02*
X0356879Y0065456D01*
X0357947Y0065456D01*
X0357947Y0066523D01*
X0356879Y0066523D01*
X0351495Y0061361D02*
X0351495Y0054956D01*
X0353630Y0054956D02*
X0349359Y0054956D01*
X0349359Y0059226D02*
X0351495Y0061361D01*
X0355805Y0058159D02*
X0355805Y0056023D01*
X0356873Y0054956D01*
X0359008Y0054956D01*
X0360075Y0056023D01*
X0360075Y0058159D01*
X0359008Y0059226D01*
X0356873Y0059226D01*
X0355805Y0058159D01*
X0362250Y0059226D02*
X0366521Y0059226D01*
X0362250Y0054956D01*
X0366521Y0054956D01*
X0333219Y0027726D02*
X0330016Y0027726D01*
X0326774Y0027726D02*
X0323571Y0027726D01*
X0322503Y0026659D01*
X0323571Y0025591D01*
X0325706Y0025591D01*
X0326774Y0024523D01*
X0325706Y0023456D01*
X0322503Y0023456D01*
X0320335Y0023456D02*
X0317132Y0025591D01*
X0320335Y0027726D01*
X0317132Y0029861D02*
X0317132Y0023456D01*
X0314970Y0023456D02*
X0312835Y0023456D01*
X0313903Y0023456D02*
X0313903Y0029861D01*
X0312835Y0029861D01*
X0309606Y0029861D02*
X0309606Y0030929D01*
X0309606Y0033956D02*
X0309606Y0038226D01*
X0308538Y0038226D01*
X0309606Y0040361D02*
X0309606Y0041429D01*
X0309606Y0044456D02*
X0308538Y0045523D01*
X0308538Y0047659D01*
X0309606Y0048726D01*
X0311741Y0048726D01*
X0312808Y0047659D01*
X0312808Y0045523D01*
X0311741Y0044456D01*
X0309606Y0044456D01*
X0306363Y0045523D02*
X0305295Y0044456D01*
X0303160Y0044456D01*
X0302092Y0045523D01*
X0303160Y0047659D02*
X0305295Y0047659D01*
X0306363Y0046591D01*
X0306363Y0045523D01*
X0303160Y0047659D02*
X0302092Y0048726D01*
X0302092Y0049794D01*
X0303160Y0050861D01*
X0305295Y0050861D01*
X0306363Y0049794D01*
X0314983Y0050861D02*
X0316051Y0050861D01*
X0316051Y0044456D01*
X0314983Y0044456D02*
X0317119Y0044456D01*
X0316038Y0038226D02*
X0312835Y0038226D01*
X0312835Y0033956D01*
X0310673Y0033956D02*
X0308538Y0033956D01*
X0305295Y0029861D02*
X0303160Y0029861D01*
X0302092Y0028794D01*
X0302092Y0027726D01*
X0303160Y0026659D01*
X0305295Y0026659D01*
X0306363Y0025591D01*
X0306363Y0024523D01*
X0305295Y0023456D01*
X0303160Y0023456D01*
X0302092Y0024523D01*
X0308538Y0023456D02*
X0310673Y0023456D01*
X0309606Y0023456D02*
X0309606Y0027726D01*
X0308538Y0027726D01*
X0306363Y0028794D02*
X0305295Y0029861D01*
X0302092Y0033956D02*
X0302092Y0040361D01*
X0306363Y0040361D01*
X0304228Y0037159D02*
X0302092Y0037159D01*
X0316038Y0038226D02*
X0317105Y0037159D01*
X0317105Y0033956D01*
X0319280Y0038226D02*
X0320348Y0038226D01*
X0308538Y0068659D02*
X0309606Y0069726D01*
X0309606Y0075956D02*
X0308538Y0077023D01*
X0309606Y0078091D01*
X0312808Y0078091D01*
X0312808Y0079159D02*
X0312808Y0075956D01*
X0309606Y0075956D01*
X0306363Y0075956D02*
X0306363Y0082361D01*
X0304228Y0080226D01*
X0302092Y0082361D01*
X0309606Y0080226D02*
X0311741Y0080226D01*
X0312808Y0079159D01*
X0332165Y0082361D02*
X0332165Y0083429D01*
X0476121Y0048726D02*
X0476121Y0044456D01*
X0478256Y0044456D02*
X0478256Y0047659D01*
X0479324Y0048726D01*
X0480391Y0047659D01*
X0480391Y0044456D01*
X0478256Y0047659D02*
X0477188Y0048726D01*
X0476121Y0048726D01*
D14*
X0076792Y0098156D02*
X0059115Y0098156D01*
X0066792Y0098412D02*
X0067816Y0108392D01*
X0068049Y0108392D02*
X0065536Y0108392D01*
X0066792Y0098412D01*
X0065769Y0108392D01*
X0066281Y0108392D02*
X0066792Y0098412D01*
X0067304Y0108392D01*
X0068049Y0108392D02*
X0066792Y0098412D01*
X0066792Y0252900D01*
X0067816Y0242920D01*
X0068049Y0242920D02*
X0065536Y0242920D01*
X0066792Y0252900D01*
X0065769Y0242920D01*
X0066281Y0242920D02*
X0066792Y0252900D01*
X0067304Y0242920D01*
X0068049Y0242920D02*
X0066792Y0252900D01*
X0059115Y0253156D02*
X0076792Y0253156D01*
X0076792Y0270833D01*
X0077048Y0263156D02*
X0087029Y0264180D01*
X0087029Y0264413D02*
X0087029Y0261899D01*
X0077048Y0263156D01*
X0087029Y0262132D01*
X0087029Y0262644D02*
X0077048Y0263156D01*
X0087029Y0263668D01*
X0087029Y0264413D02*
X0077048Y0263156D01*
X0251537Y0263156D01*
X0241556Y0262132D01*
X0241556Y0261899D02*
X0251537Y0263156D01*
X0241556Y0264180D01*
X0241556Y0264413D02*
X0241556Y0261899D01*
X0241556Y0262644D02*
X0251537Y0263156D01*
X0241556Y0263668D01*
X0241556Y0264413D02*
X0251537Y0263156D01*
X0251792Y0270833D02*
X0251792Y0253156D01*
D15*
X0086785Y0179156D03*
X0086785Y0171156D03*
X0086285Y0163156D03*
X0086285Y0155156D03*
D16*
X0197125Y0153323D03*
D17*
X0133718Y0173231D03*
X0133718Y0173231D03*
D18*
X0130899Y0171550D02*
X0130899Y0170262D01*
X0130899Y0171550D02*
X0152686Y0171550D01*
X0152686Y0170262D01*
X0152686Y0151050D02*
X0152686Y0149762D01*
X0130899Y0149762D01*
X0130899Y0151050D01*
X0128992Y0135856D02*
X0124742Y0135856D01*
X0124742Y0120456D01*
X0128992Y0120456D01*
X0154592Y0120456D02*
X0158842Y0120456D01*
X0158842Y0135856D01*
X0154592Y0135856D01*
D19*
X0156792Y0138156D03*
M02*
